<?xml version="1.0" standalone="no"?> <!DOCTYPE svg PUBLIC "-//W3C//DTD SVG 1.0//EN" "http://www.w3.org/TR/2001/REC-SVG-20010904/DTD/svg10.dtd" > <svg xmlns="http://www.w3.org/2000/svg" width="100%" height="100%">
<defs >
<font horiz-adv-x="619" ><font-face
    font-family="DigitalStrip"
    units-per-em="1024"
    panose-1="2 11 6 3 5 3 2 2 2 4"
    ascent="966"
    descent="-144"
    alphabetic="0" />
<missing-glyph horiz-adv-x="512" d="M64 0V966H448V0H64ZM128 64H384V902H128V64Z" />
<glyph unicode=" " glyph-name="space" horiz-adv-x="420" />
<glyph unicode="!" glyph-name="exclam" horiz-adv-x="372" d="M268 364Q268 327 244 300T183 272Q160 272 145 287T129 326Q129 346 144 386Q163 436 178 548Q192 651 192 716Q192 728 189 750T186 785Q186 824 216 854T286 885Q340 885 340 827Q340 811 334
790Q268 559 268 364ZM164 5Q130 5 105 27T80 82Q80 115 101 139T155 164Q187 164 212 138T237 79Q237 50 215 28T164 5Z" />
<glyph unicode="&quot;" glyph-name="quotedbl" horiz-adv-x="495" d="M413 705Q413 693 417 670T421 634Q421 604 394 582T335 559Q288 559 288 607Q288 626 299 663T310 720Q310 741 298 778T286 830Q286 862 322 885Q354 906 387 906Q437 906 437 859Q437 834
425 783T413 705ZM204 690Q204 678 208 655T212 620Q212 590 185 568T126 546Q79 546 79 594Q79 613 90 650T102 706Q102 728 90 765T77 816Q77 848 113 871Q145 892 178 892Q228 892 228 845Q228 820 216 769T204 690Z" />
<glyph unicode="#" glyph-name="numbersign" horiz-adv-x="669" d="M608 556Q608 498 515 501Q509 441 505 383Q541 382 570 360T599 303Q599 268 564 252Q537 240 499 243L497 244Q494 182 494 169Q494 156 497 130T500 91Q500 57 474 30T413 3Q389 3 374 19T358
60Q358 83 367 115Q373 137 381 168Q386 204 392 244Q309 241 233 225Q230 179 230 166Q230 153 233 129T237 91Q237 57 211 30T151 3Q126 3 111 20T95 62Q95 81 107 119Q114 142 125 207Q96 212 74 234T52 284Q52 343 140 344Q142 384 149 463Q115 464 89 485T62
540Q62 573 94 589Q119 602 155 601Q156 644 156 659Q156 675 151 706T145 753Q145 788 171 817T232 847Q288 847 288 786Q288 767 282 737Q274 696 273 690Q270 669 262 593Q342 593 419 616V654Q419 671 414 703T408 753Q408 790 435 818T500 847Q550 847 550
783Q550 759 542 712Q532 657 530 640Q608 627 608 556ZM414 503Q324 499 251 485Q243 412 239 335H250Q330 335 404 356Q407 405 414 503Z" />
<glyph unicode="$" glyph-name="dollar" horiz-adv-x="759" d="M703 248Q703 161 607 89Q530 31 430 6V-7Q430 -49 408 -83Q383 -123 343 -123Q291 -123 291 -50Q291 -32 295 -11Q78 -13 78 98Q78 128 100 145T153 163Q171 163 195 152L235 134Q255 124 317 123Q326
202 336 384Q214 422 188 432Q89 471 65 513Q51 537 51 567Q51 668 147 732Q205 771 333 807V814Q333 858 355 895Q381 937 422 937Q474 937 474 857Q474 846 473 835Q512 841 532 841Q577 841 609 807T642 728Q642 697 619 670T565 643Q542 643 505 669T457 696Q447
615 441 496Q553 450 611 406Q703 336 703 248ZM344 688Q197 661 197 616Q197 569 342 531Q344 621 344 688ZM589 236Q589 300 433 354Q425 189 425 132Q478 142 525 165Q589 196 589 236Z" />
<glyph unicode="%" glyph-name="percent" horiz-adv-x="948" d="M898 249Q898 144 801 77Q715 19 605 19Q531 19 470 51Q402 86 378 150L336 58Q307 9 255 9Q228 9 210 27T192 72Q192 92 252 173Q329 276 332 281Q358 326 411 416Q354 394 291 394Q198 394 129
443Q51 497 51 586Q51 691 148 758Q234 816 344 816Q506 816 565 699Q569 709 571 717Q581 761 604 790Q632 826 672 826Q700 826 720 809T741 765Q741 737 709 696Q650 620 529 417Q592 442 657 442Q750 442 820 393Q898 338 898 249ZM337 720Q279 720 232 684Q182
645 182 589Q182 544 212 517T289 490Q349 490 401 530T454 630Q454 671 415 697Q381 720 337 720ZM653 344Q594 344 548 308Q497 269 497 212Q497 168 528 142T604 115Q663 115 715 155T768 253Q768 295 730 321Q697 344 653 344Z" />
<glyph unicode="&amp;" glyph-name="ampersand" horiz-adv-x="881" d="M802 153Q802 103 810 55Q811 49 811 38Q811 3 786 -25T726 -53Q703 -53 687 -39T671 -1Q671 14 677 35L687 70Q476 3 299 3Q210 3 144 28Q51 63 51 137Q51 232 217 320Q153 334 112 367Q62
407 62 465Q62 570 231 683Q297 727 427 779Q568 835 634 835Q694 835 694 792Q694 772 669 740T623 707Q619 707 616 709Q465 695 362 646Q207 572 207 499Q207 424 360 424Q403 424 433 431Q511 449 527 449Q553 449 572 435T591 396Q591 370 566 348T515 325Q443
325 319 279Q178 227 178 174Q178 127 287 127Q344 127 484 147Q635 168 674 186Q684 192 706 201Q707 233 707 261Q707 290 699 339T690 409Q690 443 718 472T780 501Q834 501 834 446Q834 431 830 412Q802 282 802 153Z" />
<glyph unicode="&apos;" glyph-name="quotesingle" horiz-adv-x="359" d="M138 539Q82 539 82 585Q82 607 99 631Q127 671 132 682Q140 699 148 771Q155 829 176 843Q202 860 239 860Q309 860 309 812Q309 795 297 775Q254 702 250 694Q230 653 223 604Q218 573
194 556T138 539Z" />
<glyph unicode="(" glyph-name="parenleft" horiz-adv-x="513" d="M157 396Q157 318 205 241Q244 179 307 134Q348 107 430 51Q468 25 468 -20Q468 -92 393 -92Q355 -92 287 -25Q39 218 39 407Q39 607 287 847Q366 923 430 923Q481 923 481 877Q481 867 480 862Q473
829 387 753Q278 657 236 602Q157 499 157 396Z" />
<glyph unicode=")" glyph-name="parenright" horiz-adv-x="554" d="M106 -91Q55 -91 55 -46Q55 -5 111 43Q233 147 287 214Q379 328 379 433Q379 512 330 589Q292 649 228 696Q187 724 106 780Q68 806 68 852Q68 924 142 924Q182 924 250 857Q498 614 498 424Q498
223 250 -16Q172 -91 106 -91Z" />
<glyph unicode="*" glyph-name="asterisk" horiz-adv-x="526" d="M381 712Q413 705 437 683Q465 658 465 628Q465 609 452 595T419 580Q396 580 363 604Q346 617 312 642Q319 579 319 577Q319 547 300 524T252 501Q233 501 221 517T208 554Q208 576 226 639Q163
595 140 595Q116 595 96 609T76 646Q76 681 113 696Q146 705 178 714Q130 730 116 740Q87 760 87 799Q87 846 134 846Q158 846 186 823Q201 810 230 784Q220 844 220 849Q220 876 239 900T285 925Q332 925 332 869Q332 852 327 825Q320 794 319 782L358 814Q382
831 404 831Q431 831 452 818T474 780Q474 748 441 732L381 712Z" />
<glyph unicode="+" glyph-name="plus" horiz-adv-x="647" d="M599 431Q599 370 521 370Q501 370 461 372T400 375H379Q379 354 384 312T389 248Q389 212 365 183T306 154Q279 154 263 173T247 221Q247 247 258 294T275 368Q262 366 204 354Q157 344 139 344Q107
344 80 367T52 421Q52 452 77 469Q99 484 131 484Q152 484 196 477Q234 471 264 471H279Q277 490 268 539Q259 583 259 601Q259 636 284 668T343 700Q372 700 388 680T404 630Q404 606 395 557Q385 503 384 482Q397 486 443 500Q478 511 503 511Q538 511 568 488T599
431Z" />
<glyph unicode="," glyph-name="comma" horiz-adv-x="407" d="M150 -123Q92 -123 92 -78Q92 -59 121 -15Q152 33 156 53Q157 75 159 120Q163 195 250 195Q319 195 319 148Q319 131 307 111Q271 51 260 25Q245 -9 231 -69Q218 -123 150 -123Z" />
<glyph unicode="-" glyph-name="hyphen" horiz-adv-x="677" d="M608 434Q608 403 579 387Q556 374 523 374Q504 374 466 376T408 379Q287 379 188 353Q165 347 148 347Q116 347 89 370T61 424Q61 454 86 472Q108 488 139 488Q163 488 210 481T282 474Q375 474
446 501Q483 515 510 515Q544 515 576 491T608 434Z" />
<glyph unicode="." glyph-name="period" horiz-adv-x="379" d="M202 7Q169 7 144 29T119 83Q119 115 140 140T193 166Q225 166 250 140T276 82Q276 53 254 30T202 7Z" />
<glyph unicode="/" glyph-name="slash" horiz-adv-x="611" d="M97 6Q70 6 53 23T35 68Q35 81 143 246Q203 336 263 427Q397 654 413 713Q441 821 522 821Q582 821 582 765Q582 734 551 692Q464 575 320 328L250 208Q226 154 201 101Q165 25 137 14Q117 6 97 6Z" />
<glyph unicode="0" glyph-name="zero" horiz-adv-x="848" d="M794 466Q794 287 678 151Q556 7 380 7Q235 7 141 118Q51 224 51 371Q51 550 166 687Q288 831 464 831Q609 831 704 719Q794 613 794 466ZM690 478Q690 570 634 631T486 693Q354 693 252 588T150 351Q150
259 207 198T355 136Q488 136 589 240T690 478Z" />
<glyph unicode="1" glyph-name="one" horiz-adv-x="389" d="M279 196Q279 180 282 148T285 99Q285 66 259 40T199 13Q175 13 160 28T145 67Q145 86 156 122Q192 239 199 593Q183 558 170 547Q151 530 118 530Q92 530 72 543Q48 558 48 583Q48 604 90 643Q138 688
146 703Q149 709 165 760Q176 794 196 810Q221 828 253 828Q285 828 307 811T330 763Q330 753 326 734Q307 647 291 423Q279 260 279 196Z" />
<glyph unicode="2" glyph-name="two" horiz-adv-x="667" d="M648 89Q648 56 624 38T565 20Q547 20 510 23T455 27Q348 27 198 10Q110 0 116 0Q75 0 75 44Q75 121 142 171Q497 433 497 608Q497 656 459 680Q426 701 376 701Q334 701 253 682T135 643Q98 618 85
618Q61 618 47 641Q35 660 35 685Q35 726 63 742Q128 780 213 805Q302 832 372 832Q472 832 532 786Q599 734 599 637Q599 410 307 138Q376 143 442 151Q465 154 505 162Q549 171 562 171Q595 171 621 147T648 89Z" />
<glyph unicode="3" glyph-name="three" horiz-adv-x="734" d="M519 507Q586 492 628 458Q681 416 681 355Q681 269 571 180Q489 114 360 57Q218 -5 125 -5Q63 -5 63 38Q63 64 88 91T138 118Q199 118 279 140T414 194Q536 265 536 327Q536 366 482 387Q441 403
394 403Q333 403 174 370Q150 365 137 365Q110 365 90 380T70 421Q70 447 94 469T144 491Q202 491 295 513T443 560Q550 611 550 649Q550 701 419 701Q372 701 280 685Q184 669 146 653Q133 647 121 640Q106 633 94 633Q75 633 65 649T54 685Q54 740 94 758Q159
787 246 805T406 824Q503 824 573 800Q676 764 676 688Q676 592 519 507Z" />
<glyph unicode="4" glyph-name="four" horiz-adv-x="632" d="M523 196Q523 179 526 146T530 95Q530 62 503 36T443 10Q420 10 405 25T389 63Q389 81 401 118Q416 164 430 327L311 314Q222 303 202 294Q167 279 147 279Q111 279 85 301Q51 311 51 357Q51 374 62
407Q83 470 83 582Q83 648 73 682Q64 712 64 728Q64 762 91 791T153 820Q207 820 207 765Q207 749 203 730Q180 622 180 509Q180 453 187 414Q281 414 437 427Q443 542 443 613Q443 668 439 682Q430 712 430 728Q430 763 458 792T522 821Q573 821 573 760Q573 745
570 730Q523 499 523 196Z" />
<glyph unicode="5" glyph-name="five" horiz-adv-x="738" d="M691 349Q691 262 591 175Q515 110 393 56Q262 -1 171 -1Q108 -1 108 42Q108 67 130 93T176 123Q358 147 443 199Q550 265 550 325Q550 369 492 391Q448 408 397 408Q314 408 184 375Q172 362 146 352T100
341Q50 341 50 389Q50 412 64 463T78 543Q78 603 56 684Q50 706 50 725Q50 763 75 793T137 824Q154 824 169 814L337 822Q427 829 504 848Q524 853 539 853Q572 853 599 828T627 770Q627 737 603 720T544 702Q523 702 481 706T417 710Q343 710 180 693Q174 652
174 608Q174 549 184 487Q308 524 406 524Q506 524 587 486Q691 437 691 349Z" />
<glyph unicode="6" glyph-name="six" horiz-adv-x="750" d="M693 316Q693 253 622 157Q512 8 355 8Q216 8 128 131Q48 242 48 385Q48 552 144 684Q250 830 410 830Q476 830 527 800Q568 776 616 718Q647 681 647 641Q647 614 627 593T580 571Q556 571 537 586T517
625Q517 629 518 638T519 651Q519 662 517 672Q473 706 422 706Q325 706 237 604Q156 510 142 408Q259 461 423 461Q517 461 591 433Q693 394 693 316ZM435 329Q286 329 174 283Q168 281 151 276Q168 215 218 176T331 137Q415 137 501 203Q567 254 567 283Q567
329 435 329Z" />
<glyph unicode="7" glyph-name="seven" horiz-adv-x="647" d="M591 710Q582 684 560 639Q534 587 527 569Q445 371 389 200Q375 157 358 84Q353 45 328 22T265 -1Q242 -1 225 14T207 52Q207 78 237 123Q280 187 377 461Q440 639 440 676Q440 684 441 689L408 690Q375
691 277 684Q253 682 173 672Q103 663 73 663Q33 663 33 712Q33 740 47 764T88 792Q98 793 286 802Q402 807 482 828Q505 834 522 834Q556 834 581 808T606 748Q606 727 591 710Z" />
<glyph unicode="8" glyph-name="eight" horiz-adv-x="721" d="M667 267Q667 149 556 72Q456 2 333 2Q223 2 145 59Q57 122 57 228Q57 364 208 443Q102 498 102 604Q102 707 199 774Q285 833 394 833Q487 833 556 785Q635 731 635 642Q635 534 523 462Q587 435
625 386Q667 333 667 267ZM389 737Q331 737 284 701Q234 662 234 605Q234 561 264 534T340 507Q401 507 451 545Q505 587 505 646Q505 688 467 714Q433 737 389 737ZM391 394Q314 394 251 344Q184 291 184 216Q184 160 231 126Q274 96 332 96Q408 96 472 147Q540
201 540 275Q540 330 492 364Q450 394 391 394Z" />
<glyph unicode="9" glyph-name="nine" horiz-adv-x="727" d="M664 588Q664 584 654 529Q653 526 649 466Q634 263 634 199Q634 183 637 152T641 105Q641 72 614 46T554 19Q531 19 516 34T501 72Q501 104 516 164Q533 232 536 257Q537 277 545 388Q447 323 328
323Q221 323 142 379Q53 441 53 544Q53 661 165 739Q266 809 387 809Q494 809 574 753Q664 690 664 588ZM386 715Q310 715 247 665Q180 611 180 537Q180 482 228 448Q271 417 328 417Q404 417 468 467Q536 521 536 595Q536 650 487 684Q443 715 386 715Z" />
<glyph unicode=":" glyph-name="colon" horiz-adv-x="351" d="M205 324Q172 324 147 346T121 400Q121 432 142 457T195 483Q227 483 252 458T278 400Q278 370 257 347T205 324ZM185 7Q152 7 127 29T102 83Q102 115 124 140T177 166Q209 166 234 140T259 82Q259
52 237 30T185 7Z" />
<glyph unicode=";" glyph-name="semicolon" horiz-adv-x="385" d="M227 324Q194 324 169 346T143 400Q143 432 164 457T217 483Q249 483 274 458T300 400Q300 370 279 347T227 324ZM141 -123Q83 -123 83 -78Q83 -59 112 -15Q143 33 147 53L151 120Q155 195 241
195Q310 195 310 148Q310 131 298 111Q262 51 251 25Q236 -9 222 -69Q209 -123 141 -123Z" />
<glyph unicode="&lt;" glyph-name="less" horiz-adv-x="722" d="M696 -6Q696 -57 636 -57Q560 -57 496 14Q473 42 426 96Q357 171 247 256Q201 292 153 319Q79 361 51 409Q44 421 44 435Q44 448 51 461Q77 508 153 551Q199 577 247 614Q405 736 476 830Q529 900
583 918Q613 928 636 928Q696 928 696 876Q696 829 615 776Q452 670 219 435Q378 265 518 162Q554 138 625 89Q696 37 696 -6Z" />
<glyph unicode="=" glyph-name="equal" horiz-adv-x="691" d="M600 534Q600 503 571 487Q548 474 515 474Q496 474 458 476T400 479Q279 479 180 453Q157 447 140 447Q108 447 81 470T53 525Q53 555 78 572Q100 587 131 587Q154 587 201 581T271 574Q366 574 438
601Q475 615 502 615Q537 615 568 592T600 534ZM639 301Q639 270 610 254Q587 241 554 241Q535 241 497 243T439 246Q318 246 219 220Q196 214 179 214Q147 214 120 237T92 292Q92 322 117 339Q139 354 170 354Q194 354 241 347T312 340Q404 340 477 368Q514 382
541 382Q576 382 607 359T639 301Z" />
<glyph unicode="&gt;" glyph-name="greater" horiz-adv-x="735" d="M698 435Q698 388 602 325Q564 300 494 256Q383 170 315 96Q292 68 245 14Q182 -57 106 -57Q45 -57 45 -6Q45 42 127 95Q278 192 433 343Q433 343 522 435Q388 568 334 616Q230 708 127 776Q45
830 45 877Q45 928 106 928Q190 928 265 830Q348 721 494 614Q530 591 602 545Q698 483 698 435Z" />
<glyph unicode="?" glyph-name="question" horiz-adv-x="700" d="M684 701Q684 632 608 559Q550 503 471 465Q446 453 281 387Q266 381 261 377Q253 370 252 356Q252 352 253 345T254 334Q254 268 189 268Q151 268 138 283T124 337Q124 380 140 417Q159 463 195
472Q244 484 340 509Q414 530 477 569Q566 624 566 661Q566 708 461 708Q378 708 213 650Q200 645 164 632Q126 607 113 607Q90 607 76 630Q63 650 63 674Q63 713 92 731Q159 772 263 803Q364 832 443 832Q531 832 594 808Q684 774 684 701ZM179 1Q145 1 120 23T95
78Q95 109 116 134T168 160Q200 160 225 135T251 77Q251 48 230 25T179 1Z" />
<glyph unicode="@" glyph-name="at" horiz-adv-x="850" d="M798 442Q798 340 758 249Q737 201 696 147Q644 78 611 78Q559 78 548 295Q510 254 446 220Q377 183 327 183Q232 183 232 296Q232 399 299 473T469 547Q489 547 515 533T548 519Q554 519 578 535T621
552Q637 552 637 537Q637 520 631 487T624 436Q624 406 629 354Q635 293 636 272Q695 358 695 454Q695 548 640 609T492 671Q358 671 257 567T155 329Q155 221 231 159Q267 130 314 119Q348 111 348 91Q348 63 318 44Q292 27 263 27Q172 27 99 166Q55 250 55 350Q55
524 171 662Q293 807 464 807Q614 807 709 698Q798 595 798 442ZM514 397Q514 422 481 437Q454 450 426 450Q385 450 349 415T312 340Q312 291 366 291Q414 291 461 320Q514 352 514 397Z" />
<glyph unicode="A" glyph-name="A" horiz-adv-x="745" d="M608 -2Q575 -2 559 43Q554 68 543 117L527 185L205 157Q192 112 178 67Q155 21 101 21Q76 21 60 38T44 81Q44 108 74 156Q112 217 204 439Q298 668 306 725Q312 773 325 797Q343 832 382 839Q393 841
407 841Q447 841 460 795Q469 764 471 739Q475 697 497 614Q543 438 605 258Q618 218 642 168Q671 124 671 90Q671 58 656 30Q638 -2 608 -2ZM497 296Q439 500 394 627Q335 496 248 277L497 296Z" />
<glyph unicode="B" glyph-name="B" horiz-adv-x="713" d="M658 297Q658 163 472 71Q351 11 145 8Q127 -2 108 -2Q52 -2 52 52Q52 92 66 171Q82 262 84 292Q99 478 99 600Q99 652 95 670Q88 702 88 717Q88 752 115 780T178 809Q190 809 202 803Q291 827 362 827Q458
827 536 784Q631 732 631 644Q631 550 526 485Q658 422 658 297ZM222 688Q213 631 204 513Q288 512 367 530Q466 552 514 596Q539 619 539 641Q539 703 383 703Q314 703 222 688ZM195 371Q186 256 186 196Q186 167 188 141Q280 141 365 163Q469 190 522 242Q556
275 556 308Q556 356 484 376Q438 389 375 389Q297 389 195 371Z" />
<glyph unicode="C" glyph-name="C" horiz-adv-x="690" d="M661 618Q661 591 643 569T598 547Q573 547 554 560Q531 575 532 599Q532 603 533 611T534 623Q534 635 531 646Q482 683 420 683Q298 683 210 577Q127 477 127 353Q127 265 179 203Q234 137 320 137Q362
137 409 155T485 201Q500 218 532 251Q560 278 594 278Q613 278 630 260T647 223Q647 201 609 154Q493 11 345 11Q206 11 118 130Q37 237 37 381Q37 543 132 674Q237 818 394 818Q468 818 527 783Q572 756 630 691Q661 656 661 618Z" />
<glyph unicode="D" glyph-name="D" horiz-adv-x="751" d="M710 530Q710 433 654 328Q605 237 526 160Q402 40 218 16Q175 15 125 10Q92 7 97 7Q48 7 48 60Q48 78 56 112Q68 161 79 298Q94 478 94 600Q94 651 89 675Q83 704 83 722Q83 760 112 789T180 819Q199
819 213 805Q314 827 392 827Q540 827 615 752Q710 658 710 530ZM370 676Q304 676 216 664Q185 398 185 206Q185 178 186 153Q326 157 447 252Q613 382 613 509Q613 601 533 643Q471 676 370 676Z" />
<glyph unicode="E" glyph-name="E" horiz-adv-x="682" d="M643 434Q643 374 574 374Q558 374 526 377T477 381Q426 381 185 356Q177 246 177 186Q177 153 179 124L348 132Q444 138 514 158Q531 163 544 163Q574 163 600 137T626 80Q626 23 563 23Q544 23 508 27T452
31Q357 31 146 8Q124 -8 100 -8Q43 -8 43 47Q43 77 54 133Q67 197 69 219Q89 435 89 595Q89 647 85 664Q78 694 78 710Q78 746 106 774T170 802Q185 802 197 795Q246 797 343 803Q422 808 487 828Q504 833 517 833Q548 833 573 807T598 749Q598 693 537 693Q522
693 491 696T445 700Q411 700 212 680Q200 597 194 485L359 493Q452 499 522 519Q543 525 555 525Q588 525 615 496T643 434Z" />
<glyph unicode="F" glyph-name="F" horiz-adv-x="655" d="M634 404Q634 344 567 344Q551 344 519 347T470 350Q414 350 174 326Q169 227 169 165Q169 152 171 128T174 90Q174 56 148 30T87 3Q31 3 31 61Q31 79 39 111Q56 178 61 260Q64 310 69 410Q76 540 76 609Q76
659 72 675Q65 703 65 720Q65 757 93 785T159 814Q174 814 187 806Q236 808 334 814Q416 820 478 839Q497 845 510 845Q540 845 564 819T589 761Q589 704 529 704Q514 704 486 707T442 711Q408 711 203 691Q193 627 181 454Q331 461 348 462Q444 470 513 489Q531
494 545 494Q578 494 606 466T634 404Z" />
<glyph unicode="G" glyph-name="G" horiz-adv-x="770" d="M709 339Q709 274 643 181Q518 4 356 4Q218 4 129 127Q49 237 49 381Q49 545 144 678Q250 826 408 826Q483 826 541 790Q586 762 642 696Q672 661 672 622Q672 594 654 572T609 550Q584 550 565 563Q543
578 544 602Q544 606 545 615T546 629Q546 640 543 650Q494 688 432 688Q310 688 221 579Q137 476 137 352Q137 264 190 200Q246 132 332 132Q390 132 484 187Q586 246 586 298Q586 344 501 344Q411 344 326 308Q305 299 292 299Q269 299 257 324Q248 343 248 369Q248
426 353 455Q426 475 505 475Q709 475 709 339Z" />
<glyph unicode="H" glyph-name="H" horiz-adv-x="704" d="M601 195Q601 179 603 149T605 102Q605 67 581 40T522 13Q499 13 485 29T471 69Q471 99 483 153Q497 214 499 239Q502 279 507 358Q482 361 450 361Q402 361 188 339Q183 238 183 175Q183 163 185 138T188
101Q188 67 163 40T103 13Q79 13 64 30T49 71Q49 86 58 122Q68 163 80 307Q95 490 95 613Q95 668 91 686Q85 713 85 728Q85 763 111 793T172 823Q226 823 226 767Q226 756 222 734Q210 670 196 467L348 476Q449 485 495 499Q508 503 514 504Q517 571 517 618Q517
670 513 686Q506 715 506 729Q506 764 532 794T594 824Q643 824 643 761Q643 747 641 734Q601 474 601 195Z" />
<glyph unicode="I" glyph-name="I" horiz-adv-x="625" d="M523 690Q506 690 473 693T423 697Q405 697 373 696Q347 498 347 248Q347 187 353 141Q378 144 433 152T516 160Q533 160 543 137Q551 119 551 99Q551 35 509 31Q493 29 331 20Q223 14 155 -4Q140 -8 128
-8Q92 -8 64 17T35 78Q35 141 104 141Q121 141 154 138T204 134H230Q237 165 245 285Q255 442 255 554Q255 652 247 674Q245 678 243 686Q229 684 177 677Q135 671 112 671Q75 671 75 733Q75 797 118 800Q177 803 296 809Q398 814 472 835Q486 839 500 839Q536
839 564 814T592 753Q592 690 523 690Z" />
<glyph unicode="J" glyph-name="J" horiz-adv-x="742" d="M623 689Q619 617 610 474Q600 323 579 247Q544 116 463 59T296 1Q186 1 108 93Q66 142 53 212Q45 255 45 345Q45 400 91 400Q111 400 128 383T146 345Q146 337 144 322T141 299Q141 227 185 178T302 129Q358
129 405 156Q458 186 469 236Q503 393 503 663V693Q449 693 361 683Q238 669 220 669H215Q175 669 175 729Q175 794 220 799Q236 801 323 804Q482 810 575 834Q590 838 603 838Q639 838 666 811T694 748Q694 689 623 689Z" />
<glyph unicode="K" glyph-name="K" horiz-adv-x="668" d="M602 121Q602 89 585 60Q566 26 536 26Q513 26 480 62Q412 136 176 270H175Q173 226 173 194Q173 179 175 149T178 103Q178 66 155 38T96 10Q72 10 57 26T42 67Q42 82 51 119T73 306Q89 499 89 615Q89
666 85 682Q78 711 78 725Q78 762 105 791T169 821Q216 821 216 758Q216 742 208 688T198 615Q190 524 184 433Q423 669 455 736Q484 797 526 804Q535 805 546 805Q573 805 595 790T618 749Q618 717 579 686Q458 589 253 361Q311 325 399 270Q502 210 547 199Q602
186 602 121Z" />
<glyph unicode="L" glyph-name="L" horiz-adv-x="633" d="M551 40Q532 40 495 44T438 49Q355 49 132 27Q110 11 86 11Q31 11 31 64Q31 83 40 118Q78 264 78 616Q78 664 74 682Q68 708 68 725Q68 760 94 790T154 820Q206 820 206 764Q206 752 202 730Q188 655 174
451Q161 267 161 214Q161 176 163 142Q253 144 334 147Q445 151 498 167Q518 173 531 173Q559 173 584 148T610 94Q610 40 551 40Z" />
<glyph unicode="M" glyph-name="M" horiz-adv-x="1025" d="M946 100Q946 68 920 42T861 15Q833 15 817 33T801 80Q802 90 808 140Q812 173 812 210Q812 342 802 507Q762 438 702 304Q636 156 604 100Q568 36 567 34Q538 -9 514 -9Q499 -9 483 -2Q454 11 439 35Q431
48 419 90Q413 109 397 159Q377 227 335 362Q299 475 252 556Q195 247 195 111Q195 74 170 45T108 16Q87 16 73 30T58 66Q58 79 77 150Q99 231 101 243Q122 350 141 492Q159 624 159 670Q159 678 157 694T155 719Q155 758 184 790T252 822Q294 822 294 771Q365
647 423 474Q443 416 522 166L774 730Q774 766 800 797T861 829Q920 829 920 761Q920 732 918 675T915 589Q915 254 942 129Q946 111 946 100Z" />
<glyph unicode="N" glyph-name="N" horiz-adv-x="839" d="M736 186Q736 172 738 145T741 103Q741 70 716 43T658 16Q632 16 620 35T610 80Q396 400 204 578Q180 335 180 196Q180 179 183 147T187 97Q187 64 161 37T102 10Q78 10 63 27T48 68Q48 83 57 120T79 307Q95
500 95 616Q95 666 91 683Q84 712 84 725Q84 761 112 791T177 822Q213 822 223 782Q465 526 637 259Q655 484 655 627Q655 676 652 689Q644 723 644 734Q644 767 669 797T728 828Q780 828 780 770Q780 750 772 696Q762 631 761 616Q736 351 736 186Z" />
<glyph unicode="O" glyph-name="O" horiz-adv-x="848" d="M794 466Q794 287 678 151Q556 7 380 7Q235 7 141 118Q51 224 51 371Q51 550 166 687Q288 831 464 831Q609 831 704 719Q794 613 794 466ZM690 478Q690 570 634 631T486 693Q354 693 252 588T150 351Q150
259 207 198T355 136Q488 136 589 240T690 478Z" />
<glyph unicode="P" glyph-name="P" horiz-adv-x="680" d="M173 266Q170 205 170 177Q170 163 172 134T175 91Q175 55 153 28Q129 -2 94 -2Q69 -2 54 14T38 55Q38 85 49 140Q61 203 63 225Q83 446 83 625Q83 640 78 670T72 716Q72 751 99 780T162 809Q173 809 183
805Q283 837 363 837Q472 837 558 772Q652 701 652 595Q652 486 551 390Q435 279 173 266ZM203 672Q190 569 181 414Q278 414 364 440Q469 471 521 532Q551 567 551 600Q551 652 482 675Q436 690 371 690Q298 690 203 672Z" />
<glyph unicode="Q" glyph-name="Q" horiz-adv-x="842" d="M703 30Q703 -5 676 -38T614 -72Q570 -72 561 -4Q546 14 534 44Q451 6 372 6Q227 6 135 122Q50 229 50 378Q50 552 165 687Q286 830 457 830Q601 830 695 718Q784 612 784 465Q784 268 646 126Q664 104
683 82Q703 53 703 30ZM478 693Q348 693 248 589T147 354Q147 261 202 199Q260 134 351 134Q413 134 479 166Q457 217 395 346Q358 420 358 460Q358 543 405 543Q414 543 420 541Q446 530 458 488Q494 367 575 234Q683 344 683 482Q683 572 625 632T478 693Z" />
<glyph unicode="R" glyph-name="R" horiz-adv-x="703" d="M558 30Q536 30 503 61Q413 145 183 260Q179 203 179 175Q179 161 182 134T185 92Q185 56 162 28T103 -1Q78 -1 63 15T47 56Q47 86 58 141Q71 204 73 226Q93 441 93 627Q93 642 88 671T82 716Q82 751 109
780T172 809Q180 809 189 807Q284 835 361 835Q473 835 562 773Q661 703 661 595Q661 523 612 451Q540 345 349 301Q424 260 453 245Q526 208 558 203Q619 193 619 120Q619 89 604 62Q587 30 558 30ZM216 690Q201 580 191 412Q289 413 375 440Q479 473 531 535Q561
571 561 605Q561 662 486 687Q435 704 365 704Q299 704 216 690Z" />
<glyph unicode="S" glyph-name="S" horiz-adv-x="751" d="M700 266Q700 138 548 58Q421 -9 280 -9Q75 -9 75 102Q75 132 97 149T150 167Q169 167 192 156Q212 147 232 137Q257 126 316 126Q398 126 474 149Q581 182 581 243Q581 255 578 265Q563 314 413 364Q345
385 209 427Q138 449 102 474Q48 512 48 571Q48 629 81 677T169 751Q372 845 530 845Q573 845 606 811T639 733Q639 701 616 675T561 648Q535 648 499 674T430 701Q375 701 297 682Q194 657 194 619Q194 577 296 547Q700 430 700 266Z" />
<glyph unicode="T" glyph-name="T" horiz-adv-x="675" d="M583 693Q566 693 533 697T482 701Q468 701 440 700T397 699Q360 452 360 200Q360 182 363 146T367 91Q367 57 342 30T282 3Q258 3 243 19T227 60Q227 100 240 179Q256 271 258 300Q274 497 274 612Q274
639 266 693Q208 690 131 681L71 674Q29 674 29 733Q29 798 71 803Q125 809 207 812L344 817Q419 822 438 824Q491 829 530 839Q545 843 556 843Q592 843 621 818T650 756Q650 693 583 693Z" />
<glyph unicode="U" glyph-name="U" horiz-adv-x="721" d="M619 188Q619 174 621 148T624 107Q624 73 598 46T537 19Q510 19 497 38T487 84L306 32Q182 -3 129 -3Q81 -3 62 31Q49 55 49 108Q49 237 78 546Q88 653 88 662Q88 671 87 690T85 718Q85 757 110 792Q137
831 175 831Q221 831 221 781Q221 765 215 740Q193 647 179 513Q166 386 166 284Q166 170 190 158Q198 154 213 154Q269 154 361 178Q407 190 509 219Q532 446 532 627Q532 675 528 692Q521 721 521 736Q521 770 547 800T607 830Q662 830 662 773Q662 744 654 696Q645
636 643 619Q619 362 619 188Z" />
<glyph unicode="V" glyph-name="V" horiz-adv-x="668" d="M635 753Q635 734 614 698Q556 599 451 361Q412 272 394 229Q360 146 347 94Q327 12 247 12Q194 12 195 57Q188 73 178 143Q167 229 165 237Q92 592 49 670Q27 710 27 736Q27 767 48 795T99 824Q112 824
125 818Q151 806 162 745Q166 716 176 658Q216 438 279 228Q459 599 472 689Q479 736 506 766Q535 800 581 800Q602 800 618 787T635 753Z" />
<glyph unicode="W" glyph-name="W" horiz-adv-x="975" d="M821 113Q821 74 792 48T723 21Q674 21 671 72Q564 249 452 582L220 97Q221 65 199 35T145 5Q119 5 105 25T91 72Q91 86 93 114T96 157Q96 253 85 422Q72 621 54 673Q42 707 42 729Q42 761 65 790T119
820Q172 820 172 743Q172 734 171 717T170 690Q170 542 191 312Q223 370 282 504T373 695Q402 748 409 758Q438 800 460 800Q505 800 534 751Q547 730 555 699Q562 679 578 628L636 439Q669 334 714 259Q732 346 755 508Q774 641 774 682Q774 689 773 704T771 726Q771
763 800 793T867 823Q891 823 907 808T924 770Q924 750 910 692L890 609Q821 258 821 113Z" />
<glyph unicode="X" glyph-name="X" horiz-adv-x="660" d="M612 768Q612 745 583 708Q523 631 384 406Q409 363 461 277Q495 231 530 185Q579 118 579 92Q579 64 564 42T521 20Q508 20 493 26Q463 38 439 102Q420 153 387 209Q366 243 325 311L259 205Q235 157
211 108Q179 45 149 31T96 16Q43 16 43 62Q43 82 104 163Q143 215 182 267Q210 313 267 406Q241 447 190 530Q169 564 129 609Q87 658 73 679T58 725V730Q58 761 73 783T119 805Q157 805 234 672Q280 587 325 503L387 606Q432 684 438 707Q451 752 479 780Q512
812 556 812Q578 812 595 801T612 768Z" />
<glyph unicode="Y" glyph-name="Y" horiz-adv-x="738" d="M708 771Q708 751 650 666Q613 614 577 562Q512 461 416 304Q412 231 412 194Q412 180 414 153T417 112Q417 75 393 47T332 19Q308 19 293 35T278 76Q278 94 287 128Q299 174 309 288Q146 577 78 644Q34
688 34 727Q34 760 55 784T108 808Q155 808 184 746Q225 657 364 432L450 574Q513 679 522 711Q552 817 651 817Q673 817 690 805T708 771Z" />
<glyph unicode="Z" glyph-name="Z" horiz-adv-x="630" d="M208 140Q281 144 352 153Q369 155 416 165Q459 174 473 174Q504 174 528 148T553 91Q553 60 532 42T478 24Q459 24 421 28T364 32Q308 32 217 20Q95 4 70 4H65Q33 4 33 54Q33 101 83 158Q112 191 162
266Q245 390 304 484Q406 647 424 700Q359 700 280 693Q270 692 194 681Q139 673 109 673Q72 673 72 718Q72 797 123 802Q126 802 303 812Q411 818 481 838Q502 844 516 844Q547 844 570 818T594 761Q594 738 550 673Q520 632 490 590Q305 316 208 140Z" />
<glyph unicode="[" glyph-name="bracketleft" horiz-adv-x="467" d="M500 875Q500 814 422 814Q402 814 362 817T302 821Q278 821 172 799Q156 673 140 378Q127 132 127 81Q127 35 130 0Q177 -8 202 -8Q227 -8 275 9T350 26Q384 26 415 3T446 -53Q446 -90 404
-106Q384 -114 360 -114Q341 -114 304 -111T248 -107Q221 -107 169 -119T92 -132Q76 -132 42 -122Q-5 -108 -5 -62Q-5 -47 3 -13Q15 36 30 267Q50 567 50 727Q50 779 47 790Q40 817 40 830Q40 855 53 878Q54 905 80 921Q102 935 130 935Q151 935 193 927T256 919Q282
919 330 937T404 956Q438 956 469 932T500 875Z" />
<glyph unicode="\" glyph-name="backslash" horiz-adv-x="654" d="M537 6Q471 6 444 82Q423 143 315 327Q173 569 84 692Q54 733 54 765Q54 821 113 821Q194 821 221 713Q236 653 370 429T552 152T600 68Q600 40 583 23T537 6Z" />
<glyph unicode="]" glyph-name="bracketright" horiz-adv-x="589" d="M546 883Q546 868 538 835Q526 786 510 560Q489 264 489 104Q489 46 493 31Q500 5 500 -9Q500 -33 487 -56Q485 -83 459 -99Q437 -113 408 -113Q386 -113 344 -105T280 -97Q256 -97 209 -115T137
-134Q102 -134 71 -110T40 -52Q40 -21 70 -6Q93 7 127 7Q146 7 184 4T241 1Q266 1 368 22Q384 155 399 443Q413 708 413 746Q413 789 410 822Q363 830 338 830Q312 830 264 812T190 794Q156 794 125 818T94 875Q94 912 136 928Q156 936 180 936Q199 936 236 933T292
929Q319 929 370 942T447 955Q463 955 498 944Q546 929 546 883Z" />
<glyph unicode="^" glyph-name="asciicircum" horiz-adv-x="420" />
<glyph unicode="_" glyph-name="underscore" horiz-adv-x="896" d="M722 -102Q692 -102 632 -99T542 -96Q379 -96 239 -123Q208 -129 184 -129Q145 -129 105 -109Q57 -86 57 -51Q57 -18 99 -2Q129 10 168 10Q201 10 267 4T366 -3Q508 -3 606 24Q660 39 699 39Q737
39 783 19Q837 -5 837 -39Q837 -102 722 -102Z" />
<glyph unicode="a" glyph-name="a" horiz-adv-x="663" d="M586 -2Q553 -2 538 43Q533 68 522 117L506 185L191 160L184 152L156 64Q134 21 80 21Q55 21 39 38T23 81Q23 108 53 156Q91 217 183 439Q278 668 285 725Q291 774 303 797Q321 832 361 839Q372 841 386
841Q426 841 439 795Q447 766 450 739Q456 688 475 614Q517 451 584 258Q598 217 621 168Q650 124 650 90Q650 58 634 31Q615 -2 586 -2ZM476 296Q417 500 373 627Q313 496 227 277L476 296Z" />
<glyph unicode="b" glyph-name="b" horiz-adv-x="713" d="M658 297Q658 163 472 71Q351 11 145 8Q127 -2 108 -2Q52 -2 52 52Q52 92 66 171Q82 262 84 292Q99 478 99 600Q99 652 95 670Q88 702 88 717Q88 752 115 780T178 809Q190 809 202 803Q291 827 362 827Q458
827 536 784Q631 732 631 644Q631 550 526 485Q658 422 658 297ZM222 688Q213 631 204 513Q288 512 367 530Q466 552 514 596Q539 619 539 641Q539 703 383 703Q314 703 222 688ZM195 371Q186 256 186 196Q186 167 188 141Q280 141 365 163Q469 190 522 242Q556
275 556 308Q556 356 484 376Q438 389 375 389Q297 389 195 371Z" />
<glyph unicode="c" glyph-name="c" horiz-adv-x="690" d="M661 618Q661 591 643 569T598 547Q573 547 554 560Q531 575 532 599Q532 603 533 611T534 623Q534 635 531 646Q482 683 420 683Q298 683 210 577Q127 477 127 353Q127 265 179 203Q234 137 320 137Q362
137 409 155T485 201Q500 218 532 251Q560 278 594 278Q613 278 630 260T647 223Q647 201 609 154Q493 11 345 11Q206 11 118 130Q37 237 37 381Q37 543 132 674Q237 818 394 818Q468 818 527 783Q572 756 630 691Q661 656 661 618Z" />
<glyph unicode="d" glyph-name="d" horiz-adv-x="751" d="M710 530Q710 433 654 328Q605 237 526 160Q402 40 218 16Q175 15 125 10Q92 7 97 7Q48 7 48 60Q48 78 56 112Q68 161 79 298Q94 478 94 600Q94 651 89 675Q83 704 83 722Q83 760 112 789T180 819Q199
819 213 805Q314 827 392 827Q540 827 615 752Q710 658 710 530ZM370 676Q304 676 216 664Q185 398 185 206Q185 178 186 153Q326 157 447 252Q613 382 613 509Q613 601 533 643Q471 676 370 676Z" />
<glyph unicode="e" glyph-name="e" horiz-adv-x="683" d="M643 434Q643 374 574 374Q558 374 526 377T477 381Q426 381 185 356Q177 246 177 186Q177 153 179 124L348 132Q444 138 514 158Q531 163 544 163Q574 163 600 137T626 80Q626 23 563 23Q544 23 508 27T452
31Q357 31 146 8Q124 -8 100 -8Q43 -8 43 47Q43 77 54 133Q67 197 69 219Q89 435 89 595Q89 647 85 664Q78 694 78 710Q78 746 106 774T170 802Q185 802 197 795Q246 797 343 803Q422 808 487 828Q504 833 517 833Q548 833 573 807T598 749Q598 693 537 693Q522
693 491 696T445 700Q411 700 212 680Q200 597 194 485L359 493Q452 499 522 519Q543 525 555 525Q588 525 615 496T643 434Z" />
<glyph unicode="f" glyph-name="f" horiz-adv-x="655" d="M634 404Q634 344 567 344Q551 344 519 347T470 350Q414 350 174 326Q169 227 169 165Q169 152 171 128T174 90Q174 56 148 30T87 3Q31 3 31 61Q31 79 39 111Q56 178 61 260Q64 310 69 410Q76 540 76 609Q76
659 72 675Q65 703 65 720Q65 757 93 785T159 814Q174 814 187 806Q236 808 334 814Q416 820 478 839Q497 845 510 845Q540 845 564 819T589 761Q589 704 529 704Q514 704 486 707T442 711Q408 711 203 691Q193 627 181 454Q331 461 348 462Q444 470 513 489Q531
494 545 494Q578 494 606 466T634 404Z" />
<glyph unicode="g" glyph-name="g" horiz-adv-x="770" d="M709 339Q709 274 643 181Q518 4 356 4Q218 4 129 127Q49 237 49 381Q49 545 144 678Q250 826 408 826Q483 826 541 790Q586 762 642 696Q672 661 672 622Q672 594 654 572T609 550Q584 550 565 563Q543
578 544 602Q544 606 545 615T546 629Q546 640 543 650Q494 688 432 688Q310 688 221 579Q137 476 137 352Q137 264 190 200Q246 132 332 132Q390 132 484 187Q586 246 586 298Q586 344 501 344Q411 344 326 308Q305 299 292 299Q269 299 257 324Q248 343 248 369Q248
426 353 455Q426 475 505 475Q709 475 709 339Z" />
<glyph unicode="h" glyph-name="h" horiz-adv-x="704" d="M601 195Q601 179 603 149T605 102Q605 67 581 40T522 13Q499 13 485 29T471 69Q471 99 483 153Q497 214 499 239Q502 279 507 358Q482 361 450 361Q402 361 188 339Q183 238 183 175Q183 163 185 138T188
101Q188 67 163 40T103 13Q79 13 64 30T49 71Q49 86 58 122Q68 163 80 307Q95 490 95 613Q95 668 91 686Q85 713 85 728Q85 763 111 793T172 823Q226 823 226 767Q226 756 222 734Q210 670 196 467L348 476Q449 485 495 499Q508 503 514 504Q517 571 517 618Q517
670 513 686Q506 715 506 729Q506 764 532 794T594 824Q643 824 643 761Q643 747 641 734Q601 474 601 195Z" />
<glyph unicode="i" glyph-name="i" horiz-adv-x="308" d="M206 193Q206 177 209 144T213 95Q213 62 187 36T127 9Q104 9 88 24T72 63Q72 79 84 118Q102 176 115 360Q126 513 126 611Q126 668 122 682Q113 715 113 728Q113 763 141 792T205 821Q256 821 256 760Q256
745 253 730Q206 495 206 193Z" />
<glyph unicode="j" glyph-name="j" horiz-adv-x="743" d="M624 689Q620 617 611 474Q601 325 580 247Q545 116 464 59T298 1Q187 1 109 93Q66 143 54 212Q47 251 47 345Q47 400 92 400Q112 400 129 383T147 345Q147 337 145 322T142 299Q142 227 187 178T303 129Q359
129 406 156Q459 186 470 236Q504 393 504 663V693Q450 693 362 683Q239 669 221 669H216Q176 669 176 729Q176 794 221 799Q237 801 324 804Q483 810 576 834Q591 838 604 838Q640 838 668 811T696 748Q696 689 624 689Z" />
<glyph unicode="k" glyph-name="k" horiz-adv-x="662" d="M602 121Q602 89 585 60Q566 26 536 26Q513 26 480 62Q412 136 176 270H175Q173 226 173 194Q173 179 175 149T178 103Q178 66 155 38T96 10Q72 10 57 26T42 67Q42 82 51 119T73 306Q89 499 89 615Q89
666 85 682Q78 711 78 725Q78 762 105 791T169 821Q216 821 216 758Q216 742 208 688T198 615Q190 524 184 433Q423 669 455 736Q484 797 526 804Q535 805 546 805Q573 805 595 790T618 749Q618 717 579 686Q458 589 253 361Q311 325 399 270Q502 210 547 199Q602
186 602 121Z" />
<glyph unicode="l" glyph-name="l" horiz-adv-x="558" d="M529 40Q510 40 473 44T416 49Q334 49 111 27Q89 11 65 11Q10 11 10 64Q10 83 19 118Q57 264 57 616Q57 666 53 682Q46 710 46 725Q46 759 72 789T132 820Q185 820 185 764Q185 751 181 730Q166 653 152
451Q139 267 139 214Q139 176 142 142Q229 144 312 147Q424 151 477 167Q497 173 509 173Q538 173 563 148T588 94Q588 40 529 40Z" />
<glyph unicode="m" glyph-name="m" horiz-adv-x="993" d="M945 100Q945 68 919 42T860 15Q832 15 816 33T800 80Q810 185 810 210Q810 342 801 507Q763 442 701 304Q635 158 603 100T566 34Q537 -9 513 -9Q498 -9 482 -2Q452 11 438 35Q429 50 418 90Q412 109
396 159Q376 227 334 362Q298 475 251 556Q194 247 194 111Q194 74 169 45T106 16Q85 16 71 30T57 66Q57 82 76 151Q98 231 100 243Q119 340 140 492Q158 620 158 670Q158 678 156 694T154 719Q154 758 183 790T250 822Q292 822 293 771Q363 649 421 474Q454 371
521 166L773 730Q772 766 798 797T860 829Q919 829 919 761Q919 732 917 675T914 589Q914 254 941 129Q945 111 945 100Z" />
<glyph unicode="n" glyph-name="n" horiz-adv-x="839" d="M736 186Q736 172 738 145T741 103Q741 70 716 43T658 16Q632 16 620 35T610 80Q396 400 204 578Q180 335 180 196Q180 179 183 147T187 97Q187 64 161 37T102 10Q78 10 63 27T48 68Q48 83 57 120T79 307Q95
500 95 616Q95 666 91 683Q84 712 84 725Q84 761 112 791T177 822Q213 822 223 782Q465 526 637 259Q655 484 655 627Q655 676 652 689Q644 723 644 734Q644 767 669 797T728 828Q780 828 780 770Q780 750 772 696Q762 631 761 616Q736 351 736 186Z" />
<glyph unicode="o" glyph-name="o" horiz-adv-x="848" d="M794 466Q794 287 678 151Q556 7 380 7Q235 7 141 118Q51 224 51 371Q51 550 166 687Q288 831 464 831Q609 831 704 719Q794 613 794 466ZM690 478Q690 570 634 631T486 693Q354 693 252 588T150 351Q150
259 207 198T355 136Q488 136 589 240T690 478Z" />
<glyph unicode="p" glyph-name="p" horiz-adv-x="680" d="M173 266Q170 205 170 177Q170 163 172 134T175 91Q175 55 153 28Q129 -2 94 -2Q69 -2 54 14T38 55Q38 85 49 140Q61 203 63 225Q83 446 83 625Q83 640 78 670T72 716Q72 751 99 780T162 809Q173 809 183
805Q283 837 363 837Q472 837 558 772Q652 701 652 595Q652 486 551 390Q435 279 173 266ZM203 672Q190 569 181 414Q278 414 364 440Q469 471 521 532Q551 567 551 600Q551 652 482 675Q436 690 371 690Q298 690 203 672Z" />
<glyph unicode="q" glyph-name="q" horiz-adv-x="842" d="M703 30Q703 -5 676 -38T614 -72Q570 -72 561 -4Q546 14 534 44Q451 6 372 6Q227 6 135 122Q50 229 50 378Q50 552 165 687Q286 830 457 830Q601 830 695 718Q784 612 784 465Q784 268 646 126Q664 104
683 82Q703 53 703 30ZM478 693Q348 693 248 589T147 354Q147 261 202 199Q260 134 351 134Q413 134 479 166Q457 217 395 346Q358 420 358 460Q358 543 405 543Q414 543 420 541Q446 530 458 488Q494 367 575 234Q683 344 683 482Q683 572 625 632T478 693Z" />
<glyph unicode="r" glyph-name="r" horiz-adv-x="703" d="M558 30Q536 30 503 61Q413 145 183 260Q179 203 179 175Q179 161 182 134T185 92Q185 56 162 28T103 -1Q78 -1 63 15T47 56Q47 86 58 141Q71 204 73 226Q93 441 93 627Q93 642 88 671T82 716Q82 751 109
780T172 809Q180 809 189 807Q284 835 361 835Q473 835 562 773Q661 703 661 595Q661 523 612 451Q540 345 349 301Q424 260 453 245Q526 208 558 203Q619 193 619 120Q619 89 604 62Q587 30 558 30ZM216 690Q201 580 191 412Q289 413 375 440Q479 473 531 535Q561
571 561 605Q561 662 486 687Q435 704 365 704Q299 704 216 690Z" />
<glyph unicode="s" glyph-name="s" horiz-adv-x="751" d="M700 266Q700 138 548 58Q421 -9 280 -9Q75 -9 75 102Q75 132 97 149T150 167Q169 167 192 156Q212 147 232 137Q257 126 316 126Q398 126 474 149Q581 182 581 243Q581 255 578 265Q563 314 413 364Q345
385 209 427Q138 449 102 474Q48 512 48 571Q48 629 81 677T169 751Q372 845 530 845Q573 845 606 811T639 733Q639 701 616 675T561 648Q535 648 499 674T430 701Q375 701 297 682Q194 657 194 619Q194 577 296 547Q700 430 700 266Z" />
<glyph unicode="t" glyph-name="t" horiz-adv-x="677" d="M584 693Q567 693 534 697T484 701Q470 701 441 700T398 699Q361 452 361 200Q361 182 364 146T368 91Q368 57 343 30T283 3Q259 3 244 19T228 60Q228 100 241 179Q257 271 259 300Q275 497 275 612Q275
639 267 693Q209 690 132 681L72 674Q30 674 30 733Q30 798 72 803Q126 809 209 812L346 817Q419 822 439 824Q492 829 531 839Q546 843 557 843Q593 843 622 818T651 756Q651 693 584 693Z" />
<glyph unicode="u" glyph-name="u" horiz-adv-x="713" d="M619 188Q619 174 621 148T624 107Q624 73 598 46T537 19Q510 19 497 38T487 84L306 32Q182 -3 129 -3Q81 -3 62 31Q49 55 49 108Q49 237 78 546Q88 653 88 662Q88 671 87 690T85 718Q85 757 110 792Q137
831 175 831Q221 831 221 781Q221 765 215 740Q193 647 179 513Q166 386 166 284Q166 170 190 158Q198 154 213 154Q269 154 361 178Q407 190 509 219Q532 446 532 627Q532 675 528 692Q521 721 521 736Q521 770 547 800T607 830Q662 830 662 773Q662 744 654 696Q645
636 643 619Q619 362 619 188Z" />
<glyph unicode="v" glyph-name="v" horiz-adv-x="669" d="M636 753Q636 734 615 698Q558 599 452 361Q416 280 395 229Q361 146 348 94Q328 12 248 12Q196 12 196 57Q189 73 179 143Q168 229 166 237Q93 592 50 670Q28 710 28 736Q28 767 49 795T100 824Q113 824
126 818Q152 806 163 745Q167 716 177 658Q217 438 280 228Q460 599 473 689Q480 736 507 766Q536 800 582 800Q603 800 619 787T636 753Z" />
<glyph unicode="w" glyph-name="w" horiz-adv-x="960" d="M821 113Q821 74 792 48T723 21Q674 21 671 72Q564 249 452 582L220 97Q221 65 199 35T145 5Q119 5 105 25T91 72Q91 86 93 114T96 157Q96 253 85 422Q72 621 54 673Q42 707 42 729Q42 761 65 790T119
820Q172 820 172 743Q172 734 171 717T170 690Q170 542 191 312Q223 370 282 504T373 695Q402 748 409 758Q438 800 460 800Q505 800 534 751Q547 730 555 699Q562 679 578 628L636 439Q669 334 714 259Q732 346 755 508Q774 641 774 682Q774 689 773 704T771 726Q771
763 800 793T867 823Q891 823 907 808T924 770Q924 750 910 692L890 609Q821 258 821 113Z" />
<glyph unicode="x" glyph-name="x" horiz-adv-x="656" d="M612 768Q612 745 583 708Q523 631 384 406Q409 363 461 277Q495 231 530 185Q579 118 579 92Q579 64 564 42T521 20Q508 20 493 26Q463 38 439 102Q420 153 387 209Q366 243 325 311L259 205Q235 157
211 108Q179 45 149 31T96 16Q43 16 43 62Q43 82 104 163Q143 215 182 267Q210 313 267 406Q241 447 190 530Q169 564 129 609Q87 658 73 679T58 725V730Q58 761 73 783T119 805Q157 805 234 672Q280 587 325 503Q346 537 387 606Q430 680 438 707Q451 752 479
780Q512 812 556 812Q578 812 595 801T612 768Z" />
<glyph unicode="y" glyph-name="y" horiz-adv-x="738" d="M709 771Q709 751 651 666Q614 614 578 562Q513 461 417 304Q413 231 413 194Q413 180 415 153T418 112Q418 75 394 47T333 19Q309 19 294 35T279 76Q279 94 288 128Q300 174 310 288Q145 578 79 644Q35
688 35 727Q35 760 55 784T109 808Q156 808 185 746Q226 657 365 432L451 574Q514 679 523 711Q553 817 652 817Q674 817 691 805T709 771Z" />
<glyph unicode="z" glyph-name="z" horiz-adv-x="624" d="M208 140Q281 144 352 153Q369 155 416 165Q459 174 473 174Q504 174 528 148T553 91Q553 60 532 42T478 24Q459 24 421 28T364 32Q308 32 217 20Q95 4 70 4H65Q33 4 33 54Q33 101 83 158Q112 191 162
266Q245 390 304 484Q406 647 424 700Q359 700 280 693Q270 692 194 681Q139 673 109 673Q72 673 72 718Q72 797 123 802Q126 802 303 812Q411 818 481 838Q502 844 516 844Q547 844 570 818T594 761Q594 738 550 673Q520 632 490 590Q305 316 208 140Z" />
<glyph unicode="{" glyph-name="braceleft" horiz-adv-x="833" d="M813 691Q813 665 796 650T753 634Q726 634 690 653Q531 737 390 757Q350 763 323 786T296 849Q296 875 314 892T358 909Q387 909 438 877Q564 797 685 792Q736 790 771 766Q813 739 813 691ZM590
367Q565 367 516 369T442 372Q304 372 189 346Q162 340 141 340Q107 340 75 361Q39 384 39 417Q39 448 71 466Q98 480 132 480Q160 480 214 473T297 466Q406 466 493 494Q536 508 568 508Q605 508 641 487Q682 464 682 429Q682 367 590 367ZM393 -75Q366 -75 349
-58T332 -14Q332 55 411 80Q544 122 690 231Q729 260 761 260Q787 260 803 243T819 200Q819 116 708 93Q585 68 477 -29Q426 -75 393 -75Z" />
<glyph unicode="}" glyph-name="braceright" horiz-adv-x="791" d="M76 572Q51 572 36 589T21 631Q21 717 130 740Q252 766 360 863Q410 908 443 908Q470 908 487 891T505 847Q505 777 427 752Q288 708 148 602Q108 572 76 572ZM709 353Q682 353 628 359T547 366Q428
366 345 339Q299 324 268 324Q231 324 195 346Q154 370 154 405Q154 438 191 454Q218 466 256 466Q280 466 327 463T398 460Q532 460 649 487Q675 493 694 493Q729 493 762 471Q799 447 799 414Q799 382 768 366Q744 353 709 353ZM542 -17Q542 -41 524 -58T481
-75Q461 -75 387 -37Q298 8 281 14Q207 40 153 40Q103 40 66 65Q25 93 25 141Q25 166 42 181T86 197Q113 197 148 179Q310 95 448 76Q489 70 515 46T542 -17Z" />
</font>
</defs>
</svg>
