<svg xmlns="http://www.w3.org/2000/svg" viewBox="0 0 58.265 16.036" height="60.609" width="220.213"><g font-weight="700" font-size="10.583" font-family="Montserrat" fill="#4e4e4e"><path style="line-height:1.25;-inkscape-font-specification:'Montserrat Bold';white-space:pre" d="M12.039 6.109l-2.064 5.693H8.387l-1.28-3.534-1.323 3.534H4.196L2.143 6.11H3.7L5.043 9.96 6.44 6.109h1.397L9.192 9.96l1.386-3.852zM12.816 6.109h1.651v5.693h-1.65zm.826-.794q-.455 0-.74-.265-.287-.264-.287-.656t.286-.656q.286-.265.741-.265t.74.254q.287.254.287.635 0 .413-.286.688-.286.265-.741.265zM18.444 9.57l-.793.782v1.45H16V3.95h1.65v4.445l2.414-2.286h1.968l-2.37 2.413 2.582 3.28h-2zM22.945 6.109h1.651v5.693h-1.651zm.826-.794q-.456 0-.741-.265-.286-.264-.286-.656t.286-.656q.285-.265.74-.265.456 0 .741.254.286.254.286.635 0 .413-.286.688-.285.265-.74.265zM37.254 6.109v5.693h-1.566v-.677q-.329.37-.784.571-.455.191-.984.191-1.122 0-1.778-.646-.656-.645-.656-1.915V6.109h1.65v2.973q0 1.376 1.155 1.376.592 0 .952-.38.36-.392.36-1.154V6.109zM46.086 6.024q1.069 0 1.693.635.635.624.635 1.884v3.26h-1.651V8.796q0-.678-.286-1.006-.275-.338-.794-.338-.582 0-.92.38-.339.371-.339 1.112v2.857h-1.651V8.797q0-1.344-1.08-1.344-.571 0-.91.38-.338.371-.338 1.112v2.857h-1.651V6.11h1.577v.656q.317-.36.772-.55.466-.191 1.016-.191.603 0 1.09.243.487.233.783.688.35-.444.879-.688.54-.243 1.175-.243zM53.26 6.024q.793 0 1.439.37.656.36 1.026 1.027.37.656.37 1.534 0 .879-.37 1.546-.37.656-1.026 1.026-.646.36-1.44.36-1.09 0-1.714-.688v2.656h-1.651V6.11h1.577v.656q.614-.741 1.788-.741zm-.286 4.508q.635 0 1.037-.423.412-.434.412-1.154t-.412-1.143q-.402-.433-1.037-.433-.635 0-1.048.433-.402.424-.402 1.143 0 .72.402 1.154.413.423 1.048.423z"/></g><g fill="#1aa9ff"><path style="line-height:1.25;-inkscape-font-specification:'Montserrat Heavy Italic';white-space:pre" d="M24.943 13.961c-.579 0-1.083-.095-1.513-.285l.805-1.556c.243.04.44.032.623.032a.51.51 0 00.392-.16c.099-.105.173-.274.222-.507l1.675-6.925h4.129l-1.664 6.84c-.17.847-.496 1.472-1.43 1.966-1.004.447-1.332.595-3.24.595z" font-style="italic" font-weight="900" font-size="10.583" font-family="Montserrat"/><path d="M25.424 4.978h7.433l-3.042-3.274z"/></g></svg>