<svg xmlns="http://www.w3.org/2000/svg">
  <defs>
    <!--
    #wj-karma
      wj-karma-5-svg
      wj-karma-4-svg
      wj-karma-3-svg
      wj-karma-2-svg
      wj-karma-1-svg
    -->
    <symbol id="wj-karma" viewbox="0 0 64 114">
      <g fill="black">
        <rect width="64" height="114" rx="8" />
        <rect x="56" width="8" height="114" />
      </g>
      <g>
        <rect x="4" y="4" width="56" height="18" rx="4" fill="var(--wj-karma-5-svg)" />
        <rect x="4" y="26" width="56" height="18" rx="4" fill="var(--wj-karma-4-svg)" />
        <rect x="4" y="48" width="56" height="18" rx="4" fill="var(--wj-karma-3-svg)" />
        <rect x="4" y="70" width="56" height="18" rx="4" fill="var(--wj-karma-2-svg)" />
        <rect x="4" y="92" width="56" height="18" rx="4" fill="var(--wj-karma-1-svg)" />
      </g>
    </symbol>

    <!--
    #wj-clipboard-copy
      (currentColor)
    -->
    <symbol id="wj-clipboard-copy" viewbox="0 0 24 24">
      <g fill="none" stroke-width="2" stroke-linejoin="round" stroke-linecap="round" stroke="currentColor">
        <path d="M16 4h2a2 2 0 0 1 2 2v4M8 4H6a2 2 0 0 0-2 2v14a2 2 0 0 0 2 2h12a2 2 0 0 0 2-2v-2" />
        <rect x="8" y="2" width="8" height="3" rx="0" ry="1" />
        <path d="M21 14H12" />
        <path d="M15 10l-4 4l4 4" />
      </g>
    </symbol>

    <!--
    #wj-clipboard-success
      (currentColor)
    -->
    <symbol id="wj-clipboard-success" viewbox="0 0 24 24">
      <g fill="none" stroke-width="2" stroke-linejoin="round" stroke-linecap="round" stroke="currentColor">
        <path d="M16 4h2a2 2 0 0 1 2 2v14a2 2 0 0 1-2 2H6a2 2 0 0 1-2-2V6a2 2 0 0 1 2-2h2" />
        <rect x="8" y="2" width="8" height="3" rx="0" ry="1" />
        <path d="M7.5 13 l3 3l6-6" />
      </g>
    </symbol>

    <!--
    #wj-downarrow
      (currentColor)
    -->
    <symbol id="wj-downarrow" viewbox="0 0 24 24">
      <path fill="currentColor" d="M8.71 11.71l2.59 2.59c.39.39 1.02.39 1.41 0l2.59-2.59c.63-.63.18-1.71-.71-1.71H9.41c-.89 0-1.33 1.08-.7 1.71z" />
    </symbol>

    <!--
    #wj-hamburger
      (currentColor)

    credit to: heroicons-outline:menu (MIT)
    https://icon-sets.iconify.design/heroicons-outline/menu/
    -->
    <symbol id="wj-hamburger" viewbox="0 0 24 24">
      <g stroke="currentColor" stroke-width="3" stroke-linecap="round" stroke-linejoin="round">
        <path d="M4 6h16M4 12h16M4 18h16" />
      </g>
    </symbol>

    <!--
    #wj-close
      (currentColor)

    credit to: eva:close-fill (MIT)
    https://icon-sets.iconify.design/eva/close-fill/
    -->
    <symbol id="wj-close" viewbox="0 0 24 24">
      <path fill="currentColor" d="M13.41 12l4.3-4.29a1 1 0 1 0-1.42-1.42L12 10.59l-4.29-4.3a1 1 0 0 0-1.42 1.42l4.3 4.29l-4.3 4.29a1 1 0 0 0 0 1.42a1 1 0 0 0 1.42 0l4.29-4.3l4.29 4.3a1 1 0 0 0 1.42 0a1 1 0 0 0 0-1.42z" />
    </symbol>
  </defs>
</svg>
