<svg xmlns="http://www.w3.org/2000/svg" viewBox="0 0 608.24 141.29" fill="white">
  <path d="m256.28 49-13.12.03 41.2 13.16c.13-1.35.27-2.71.39-4.07-3.7-1.2-16.53-5.3-28.47-9.11zm39.87 46.55a42.32 42.32 0 0 1-1 5.63l.82-2.69c.1-1.28.15-2.3.18-2.94zm-52.03 2.87c-.49 3.42-.5 4.4-.56 7.99.01 3.24.26 6.1.7 8.63a16.83 16.83 0 0 0 10.67 4.85c-5.77-4.34-9.02-11.51-10.8-21.47zm43.07 21.26a49.72 49.72 0 0 1-6.46 8.2 37.33 37.33 0 0 0 6.46-8.2z"/>
  <g transform="translate(225.32 -6.05) scale(.52059)">
    <circle cx="159.13" cy="43.94" r="32.32" fill-rule="evenodd"/>
    <path d="M17.6 85.84s138.91-.22 171-.02c-2.88 22.43-5.56 47-11.67 87.34-5.26 50.63-26.04 96.3-67.79 108 32.38-21.6 35.12-74.14 35.59-84.1-3.25 31.65-30.92 86.27-71.57 85.97-27.73.14-56-19.65-55.91-65.41-.38-11.33 1.19-17.82 2.17-24.66C21 226.1 37.52 247.99 61.39 248c36.95.95 53.76-64.24 59.52-129.14-14.7-4.75-103.3-33.03-103.3-33.03Z"/>
  </g>
  <g stroke-width=".26">
    <path d="m400.1 38.63-8.52 68.9h-21.11l1.16-9.4q-3.78 4.58-9.69 7.42-5.76 2.71-12.43 2.71-7.9 0-13.53-3.45-5.6-3.58-8.1-10.25-2.52-6.67-1.4-15.68l4.97-40.25h21l-4.63 37.4q-.85 6.92 2.24 10.75 3.11 3.83 9.16 3.83 6.18 0 10.23-3.83t4.91-10.74L379 38.63Zm97.88-.75q12.84 0 19.41 7.78 6.7 7.78 4.99 21.61l-4.98 40.25h-21l4.63-37.4q.82-6.68-2.3-10.26-3-3.7-9.18-3.7t-10.21 3.7q-3.9 3.58-4.73 10.25l-4.63 37.41h-21l4.64-37.4q.82-6.68-2.31-10.26-3-3.7-9.18-3.7-6.17 0-10.2 3.7-3.9 3.58-4.73 10.25l-4.63 37.41h-21.11l8.52-68.9h21.11l-1.07 8.66q3.75-4.32 9.24-6.8 5.5-2.59 12.05-2.59 7.78 0 13.42 3.34 5.76 3.33 8.45 9.5 4.29-5.67 10.9-9.25 6.61-3.59 13.9-3.59zm57.33 10.5q3.67-4.82 9.48-7.78 5.8-2.96 13.07-2.96 8.52 0 14.91 4.32 6.38 4.32 9.33 12.35 3.09 8.02 1.78 18.64-1.32 10.62-6.4 18.77-4.95 8.02-12.4 12.47-7.46 4.32-15.98 4.32-7.16 0-12.35-2.96-5.07-2.97-7.57-7.66l-5.26 42.48H522.8l12.6-101.74h21.11zm27.08 24.57q.97-7.9-2.92-12.35-3.75-4.56-10.17-4.56-6.3 0-11.32 4.56-4.88 4.57-5.86 12.47t2.78 12.48q3.88 4.56 10.18 4.56t11.3-4.56q5.03-4.7 6-12.6zM106.06 38.63l-27.16 68.9H55.56l-5.33-44.7-16.77 44.7H10.25L0 38.63h21.11l3.67 49.26 17.7-49.26h22.34l5.67 49.01 15.7-49.01zm14.15-7.17q-5.55 0-8.75-3.2-3.03-3.34-2.44-8.16.61-4.93 4.46-8.14 4-3.34 9.55-3.34 5.43 0 8.5 3.34 3.17 3.2 2.55 8.14-.6 4.82-4.58 8.15-3.86 3.21-9.3 3.21zm9.61 7.17-8.52 68.9h-21.12l8.52-68.9z"/>
    <path d="m549.36 57.23-46.07 373.83h79.8l13.51-109.2 65.83 109.2h98.93l-93.15-129.74 124.43-130.66h-98.46L602.2 276.59l26.96-219.36Z" transform="translate(-1.86 -6.53) scale(.26458)"/>
    <path d="M222.25 31.46q-5.56 0-8.75-3.2-3.04-3.34-2.45-8.16.61-4.93 4.47-8.14 4-3.34 9.55-3.34 5.43 0 8.48 3.34 3.19 3.2 2.57 8.14-.6 4.82-4.58 8.15-3.86 3.21-9.3 3.21zm9.61 7.17-8.52 68.9H202.2l8.52-68.9z"/>
  </g>
</svg>
