<svg xmlns:osb="http://www.openswatchbook.org/uri/2009/osb" xmlns="http://www.w3.org/2000/svg" xmlns:xlink="http://www.w3.org/1999/xlink" viewBox="0 0 608.239 141.294" height="534.026" width="2298.857"><defs><linearGradient osb:paint="solid" id="b"><stop offset="0" stop-color="#0068b5"/></linearGradient><linearGradient osb:paint="solid" id="c"><stop offset="0" stop-color="#0068b5"/></linearGradient><linearGradient osb:paint="solid" id="a"><stop offset="0" stop-color="#19a9ff"/></linearGradient><linearGradient gradientUnits="userSpaceOnUse" y2="184.386" x2="188.602" y1="184.386" x1="17.188" id="h" xlink:href="#a"/><linearGradient gradientUnits="userSpaceOnUse" y2="43.94" x2="191.445" y1="43.94" x1="126.811" id="g" xlink:href="#a"/><linearGradient gradientTransform="matrix(.50053 0 0 .50053 48.418 44.033)" gradientUnits="userSpaceOnUse" y2="181.184" x2="150.382" y1="181.184" x1="29.363" id="d" xlink:href="#b"/><linearGradient xlink:href="#a" id="f" gradientUnits="userSpaceOnUse" x1="-235.305" y1="43.84" x2="-148.928" y2="43.84"/><linearGradient xlink:href="#c" id="j" gradientUnits="userSpaceOnUse" x1="-235.305" y1="43.84" x2="-148.928" y2="43.84"/><path id="i" d="M-235.101 18.899h103.565v61.232h-103.565z"/><path id="e" d="M-235.101 18.899h103.565v61.232h-103.565z"/></defs><path d="M63.115 92.751s44.513-.108 60.575-.01c-1.224 30.403-11.006 83.583-34.752 84.003-13.83.02-25.339-3.834-25.423-26.617.06-3.58.07-4.568.56-7.99 3.267 18.193 11.417 27.096 30.856 26.366 3.852-5.474 19.733-51.05 19.89-59.217-7.357-2.38-51.706-16.535-51.706-16.535z" fill="url(#d)" transform="translate(180.047 -43.72)"/><g transform="translate(225.325 -6.05) scale(.52059)"><circle cx="159.128" cy="43.94" fill="url(#g)" fill-rule="evenodd" r="32.317"/><path d="M17.604 85.839s138.91-.216 170.998-.019c-2.883 22.433-5.56 46.993-11.67 87.344-5.26 50.624-26.044 96.302-67.791 108.003 32.381-21.606 35.122-74.143 35.587-84.103-3.243 31.647-30.922 86.267-71.566 85.97-27.727.135-55.994-19.652-55.917-65.414-.377-11.335 1.195-17.825 2.174-24.663 1.585 33.14 18.1 55.038 41.97 55.049 36.955.955 53.757-64.239 59.516-129.132-14.7-4.757-103.301-33.035-103.301-33.035z" fill="url(#h)"/></g><g font-size="123.472" font-family="Poppins" letter-spacing="-5.292" word-spacing="-21.167" stroke-width=".265"><g aria-label="ump" style="line-height:1.25;-inkscape-font-specification:Jost" font-weight="700" fill="#19a9ff"><path d="M400.102 38.627l-8.524 68.897h-21.114l1.161-9.384q-3.775 4.569-9.683 7.408-5.769 2.717-12.436 2.717-7.902 0-13.525-3.457-5.607-3.581-8.116-10.249-2.508-6.667-1.393-15.68l4.98-40.252h20.99l-4.629 37.412q-.855 6.914 2.252 10.742 3.107 3.827 9.157 3.827 6.174 0 10.228-3.827 4.054-3.828 4.91-10.742l4.629-37.412zM497.98 37.886q12.841 0 19.41 7.779 6.693 7.778 4.983 21.607l-4.98 40.252h-20.99l4.628-37.412q.825-6.667-2.313-10.248-2.999-3.704-9.172-3.704-6.174 0-10.213 3.704-3.9 3.58-4.725 10.248l-4.629 37.412h-20.99l4.629-37.412q.825-6.667-2.313-10.248-2.999-3.704-9.173-3.704-6.173 0-10.212 3.704-3.9 3.58-4.725 10.248l-4.629 37.412h-21.114l8.524-68.897h21.114l-1.07 8.643q3.746-4.322 9.237-6.791 5.507-2.593 12.05-2.593 7.78 0 13.417 3.334 5.761 3.333 8.455 9.507 4.283-5.68 10.9-9.26 6.616-3.581 13.901-3.581zM555.298 48.381q3.683-4.815 9.482-7.779 5.8-2.963 13.085-2.963 8.52 0 14.899 4.321 6.38 4.322 9.338 12.348 3.081 8.025 1.768 18.644-1.314 10.618-6.397 18.768-4.944 8.025-12.408 12.47-7.45 4.322-15.969 4.322-7.161 0-12.351-2.964-5.066-2.963-7.572-7.655l-5.255 42.475h-21.114L535.39 38.627h21.114zm27.087 24.57q.978-7.901-2.917-12.346-3.756-4.569-10.177-4.569-6.297 0-11.307 4.569-4.887 4.568-5.864 12.47-.978 7.903 2.778 12.471 3.88 4.568 10.177 4.568t11.307-4.568q5.026-4.692 6.003-12.594z" style="line-height:1.25;-inkscape-font-specification:'Poppins Bold'"/></g><g aria-label="wiki" style="line-height:1.25;-inkscape-font-specification:Jost" font-weight="400" fill="#0068b5"><path d="M106.063 38.627l-27.169 68.897H55.558l-5.336-44.697-16.766 44.697H10.244L0 38.627h21.114l3.659 49.265 17.701-49.265h22.349l5.665 49.018 15.696-49.018zM120.207 31.465q-5.556 0-8.74-3.21-3.045-3.334-2.449-8.15.611-4.938 4.465-8.148 3.994-3.334 9.55-3.334 5.433 0 8.477 3.334 3.184 3.21 2.573 8.149-.596 4.815-4.59 8.149-3.853 3.21-9.286 3.21zm9.609 7.162l-8.524 68.897h-21.114l8.524-68.897zM143.49 8.616l-12.19 98.908h21.115l3.574-28.892 17.416 28.892h26.176l-24.646-34.325 32.923-34.572h-26.052L157.47 66.655l7.134-58.04zM222.244 31.465q-5.557 0-8.74-3.21-3.045-3.334-2.45-8.15.612-4.938 4.466-8.148 3.993-3.334 9.55-3.334 5.432 0 8.477 3.334 3.184 3.21 2.573 8.149-.596 4.815-4.59 8.149-3.854 3.21-9.286 3.21zm9.609 7.162l-8.524 68.897h-21.114l8.524-68.897z" style="line-height:1.25;-inkscape-font-specification:Poppins"/></g></g></svg>