<?xml version="1.0" encoding="UTF-8" standalone="no"?>
<svg
   xmlns:osb="http://www.openswatchbook.org/uri/2009/osb"
   xmlns:dc="http://purl.org/dc/elements/1.1/"
   xmlns:cc="http://creativecommons.org/ns#"
   xmlns:rdf="http://www.w3.org/1999/02/22-rdf-syntax-ns#"
   xmlns:svg="http://www.w3.org/2000/svg"
   xmlns="http://www.w3.org/2000/svg"
   xmlns:xlink="http://www.w3.org/1999/xlink"
   xmlns:sodipodi="http://sodipodi.sourceforge.net/DTD/sodipodi-0.dtd"
   xmlns:inkscape="http://www.inkscape.org/namespaces/inkscape"
   sodipodi:docname="logo.inkscape.svg"
   inkscape:version="1.0 (4035a4fb49, 2020-05-01)"
   id="svg8"
   version="1.1"
   viewBox="0 0 608.2392 141.29433"
   height="141.29433mm"
   width="608.2392mm"
   inkscape:export-xdpi="143.82106"
   inkscape:export-ydpi="143.82106">
  <defs
     id="defs2">
    <linearGradient
       id="linearGradient851"
       osb:paint="solid">
      <stop
         style="stop-color:#000000;stop-opacity:1;"
         offset="0"
         id="stop849" />
    </linearGradient>
    <rect
       x="-235.1012"
       y="18.898809"
       width="103.56547"
       height="61.232143"
       id="rect845" />
    <linearGradient
       osb:paint="solid"
       id="linearGradient867">
      <stop
         id="stop865"
         offset="0"
         style="stop-color:#0068b5;stop-opacity:1;" />
    </linearGradient>
    <linearGradient
       osb:paint="solid"
       id="accent-dark">
      <stop
         id="stop859"
         offset="0"
         style="stop-color:#0068b5;stop-opacity:1;" />
    </linearGradient>
    <linearGradient
       osb:paint="solid"
       id="accent-light">
      <stop
         id="stop853"
         offset="0"
         style="stop-color:#19a9ff;stop-opacity:1;" />
    </linearGradient>
    <linearGradient
       gradientUnits="userSpaceOnUse"
       y2="184.38589"
       x2="188.60201"
       y1="184.38589"
       x1="17.187906"
       id="linearGradient857"
       xlink:href="#accent-light"
       inkscape:collect="always" />
    <linearGradient
       gradientUnits="userSpaceOnUse"
       y2="43.939732"
       x2="191.44496"
       y1="43.939732"
       x1="126.81102"
       id="linearGradient863"
       xlink:href="#accent-light"
       inkscape:collect="always" />
    <rect
       id="rect859"
       height="61.232143"
       width="103.56547"
       y="18.898809"
       x="-235.1012" />
    <rect
       id="rect889"
       height="61.232143"
       width="103.56547"
       y="18.898809"
       x="-235.1012" />
    <linearGradient
       gradientTransform="matrix(0.50053416,0,0,0.50053416,48.418087,44.033403)"
       gradientUnits="userSpaceOnUse"
       y2="181.18413"
       x2="150.38246"
       y1="181.18413"
       x1="29.363367"
       id="linearGradient869"
       xlink:href="#linearGradient867"
       inkscape:collect="always" />
    <linearGradient
       inkscape:collect="always"
       xlink:href="#accent-light"
       id="linearGradient875"
       gradientUnits="userSpaceOnUse"
       x1="-235.30476"
       y1="43.840446"
       x2="-148.92844"
       y2="43.840446" />
    <linearGradient
       inkscape:collect="always"
       xlink:href="#accent-dark"
       id="linearGradient877"
       gradientUnits="userSpaceOnUse"
       x1="-235.30476"
       y1="43.840446"
       x2="-148.92844"
       y2="43.840446" />
  </defs>
  <sodipodi:namedview
     inkscape:snap-global="false"
     inkscape:window-maximized="1"
     inkscape:window-y="-11"
     inkscape:window-x="-11"
     inkscape:window-height="1202"
     inkscape:window-width="2304"
     showgrid="false"
     inkscape:document-rotation="0"
     inkscape:current-layer="layer1"
     inkscape:document-units="mm"
     inkscape:cy="206.14188"
     inkscape:cx="730.90842"
     inkscape:zoom="0.1767767"
     inkscape:pageshadow="2"
     inkscape:pageopacity="0.0"
     borderopacity="1.0"
     bordercolor="#666666"
     pagecolor="#ffffff"
     id="base" />
  <metadata
     id="metadata5">
    <rdf:RDF>
      <cc:Work
         rdf:about="">
        <dc:format>image/svg+xml</dc:format>
        <dc:type
           rdf:resource="http://purl.org/dc/dcmitype/StillImage" />
        <dc:title />
      </cc:Work>
    </rdf:RDF>
  </metadata>
  <g
     inkscape:groupmode="layer"
     id="layer2"
     inkscape:label="darkpart j"
     style="display:inline"
     transform="translate(180.04708,-43.719135)">
    <path
       inkscape:label="j-back"
       sodipodi:nodetypes="cccccccc"
       id="path851"
       d="m 63.115455,92.75098 c 0,0 44.512545,-0.107672 60.574125,-0.0092 -1.2234,30.40237 -11.00561,83.58231 -34.751688,84.00239 -13.82998,0.0191 -25.33847,-3.83384 -25.422407,-26.61667 0.05958,-3.5805 0.06889,-4.5681 0.558614,-7.99087 3.268251,18.19308 11.417463,27.09676 30.857337,26.3666 3.851903,-5.47404 19.732604,-51.04989 19.889934,-59.21712 -7.35781,-2.38093 -51.705915,-16.535112 -51.705915,-16.535112 z"
       style="fill:url(#linearGradient869);fill-opacity:1;stroke:none;stroke-width:0.132433px;stroke-linecap:butt;stroke-linejoin:miter;stroke-opacity:1"
       inkscape:connector-curvature="0" />
  </g>
  <g
     style="display:inline"
     id="layer1"
     inkscape:groupmode="layer"
     inkscape:label="mainpart j"
     transform="translate(180.04708,-43.719135)">
    <text
       inkscape:label="ump"
       transform="matrix(2.5484027,0,-0.35365266,2.7978159,805.40979,-25.060453)"
       style="font-style:italic;font-variant:normal;font-weight:600;font-stretch:normal;font-size:50.8px;line-height:1.25;font-family:Jost;-inkscape-font-specification:'Jost Semi-Bold Italic';letter-spacing:-2.57628px;white-space:pre;shape-inside:url(#rect859);fill:url(#linearGradient875);fill-opacity:1;stroke:none;"
       id="text857"
       xml:space="preserve" />
    <g
       style="display:inline"
       transform="matrix(0.52059032,0,0,0.52059032,45.277731,37.668434)"
       id="g883"
       inkscape:label="j">
      <ellipse
         style="fill:url(#linearGradient863);fill-opacity:1;fill-rule:evenodd;stroke:none;stroke-width:2.00491"
         id="path847"
         cx="159.12799"
         cy="43.939732"
         rx="32.316967"
         ry="32.316963"
         inkscape:label="j-dot" />
      <path
         style="fill:url(#linearGradient857);fill-opacity:1;stroke:none;stroke-width:0.264583px;stroke-linecap:butt;stroke-linejoin:miter;stroke-opacity:1"
         d="m 17.603509,85.838582 c 0,0 138.909621,-0.215115 170.998491,-0.01841 -2.8834,22.433298 -5.56035,46.993068 -11.66944,87.343388 -5.26035,50.62419 -26.04462,96.30224 -67.79194,108.00349 32.38165,-21.60652 35.12274,-74.14331 35.58732,-84.10318 -3.243,31.64665 -30.9219,86.26755 -71.565925,85.96944 -27.72731,0.13522 -55.994367,-19.65127 -55.916852,-65.41351 -0.377051,-11.33473 1.194951,-17.82472 2.173364,-24.66296 1.585038,33.1401 18.099928,55.0377 41.971161,55.04893 36.954264,0.955 53.756122,-64.23881 59.515442,-129.13226 C 106.20521,114.11675 17.603509,85.838582 17.603509,85.838582 Z"
         id="path849"
         sodipodi:nodetypes="ccccccccccc"
         inkscape:label="j-body"
         inkscape:connector-curvature="0" />
    </g>
    <text
       xml:space="preserve"
       id="text843"
       style="font-style:italic;font-variant:normal;font-weight:600;font-stretch:normal;font-size:50.8px;line-height:1.25;font-family:Jost;-inkscape-font-specification:'Jost Semi-Bold Italic';letter-spacing:-0.976954px;white-space:pre;shape-inside:url(#rect845);display:inline;fill:url(#linearGradient877);fill-opacity:1;stroke:none;"
       transform="matrix(2.517236,0,-0.33364751,2.7978159,568.90813,-27.641439)"
       inkscape:label="iki" />
    <flowRoot
       xml:space="preserve"
       id="flowRoot42"
       style="font-style:normal;font-weight:normal;font-size:40px;line-height:1.25;font-family:sans-serif;letter-spacing:0px;word-spacing:0px;display:inline;fill:#000000;fill-opacity:1;stroke:none"><flowRegion
         id="flowRegion44"><rect
           id="rect46"
           width="572.85718"
           height="507.14285"
           x="-562.85718"
           y="156.80539" /></flowRegion><flowPara
         id="flowPara48" /></flowRoot>
  </g>
  <g
     inkscape:groupmode="layer"
     id="layer3"
     inkscape:label="wiki ump"
     style="display:inline"
     transform="translate(180.04708,-43.719135)">
    <g
       aria-label="ump"
       transform="skewX(-7.0528991)"
       id="text41"
       style="font-style:normal;font-variant:normal;font-weight:normal;font-stretch:normal;font-size:105.833px;line-height:1.25;font-family:Jost;-inkscape-font-specification:Jost;letter-spacing:0px;word-spacing:-5.29167px;fill:#19a9ff;fill-opacity:1;stroke:none;stroke-width:0.264583"
       inkscape:label="ump">
      <path
         d="M 230.24312,82.345803 V 151.24318 H 209.1294 v -9.38387 q -3.21027,4.56846 -8.76651,7.40832 -5.43277,2.71638 -12.10025,2.71638 -7.90221,0 -13.95234,-3.45721 -6.05013,-3.58069 -9.38387,-10.24818 -3.33375,-6.66749 -3.33375,-15.68094 V 82.345803 h 20.99024 v 37.412017 q 0,6.91443 3.58069,10.74206 3.58069,3.82764 9.63082,3.82764 6.1736,0 9.75429,-3.82764 3.58068,-3.82763 3.58068,-10.74206 V 82.345803 Z"
         style="font-style:normal;font-variant:normal;font-weight:bold;font-stretch:normal;font-size:123.472px;line-height:1.25;font-family:Poppins;-inkscape-font-specification:'Poppins Bold';letter-spacing:-5.29167px;word-spacing:-21.1667px;fill:#19a9ff;fill-opacity:1;stroke-width:0.264583"
         id="path870"
         inkscape:label="u" />
      <path
         d="m 328.02934,81.604971 q 12.84109,0 20.37288,7.778736 7.65527,7.778736 7.65527,21.607603 v 40.25187 h -20.99024 v -37.41202 q 0,-6.66748 -3.58069,-10.24817 -3.45722,-3.704163 -9.63082,-3.704163 -6.1736,0 -9.75429,3.704163 -3.45721,3.58069 -3.45721,10.24817 v 37.41202 H 287.654 v -37.41202 q 0,-6.66748 -3.58069,-10.24817 -3.45722,-3.704163 -9.63082,-3.704163 -6.1736,0 -9.75428,3.704163 -3.45722,3.58069 -3.45722,10.24817 v 37.41202 H 240.11728 V 82.345803 h 21.11371 v 8.64304 q 3.21027,-4.32152 8.3961,-6.79096 5.18582,-2.592912 11.72984,-2.592912 7.77873,0 13.82886,3.333744 6.1736,3.333744 9.63082,9.507344 3.58068,-5.679712 9.75428,-9.2604 6.1736,-3.580688 13.45845,-3.580688 z"
         style="font-style:normal;font-variant:normal;font-weight:bold;font-stretch:normal;font-size:123.472px;line-height:1.25;font-family:Poppins;-inkscape-font-specification:'Poppins Bold';letter-spacing:-5.29167px;word-spacing:-21.1667px;fill:#19a9ff;fill-opacity:1;stroke-width:0.264583"
         id="path872"
         inkscape:label="m" />
      <path
         d="m 386.64601,92.100091 q 3.0868,-4.815408 8.51956,-7.778736 5.43277,-2.963328 12.71762,-2.963328 8.51957,0 15.434,4.32152 6.91443,4.32152 10.86554,12.3472 4.07457,8.025683 4.07457,18.644273 0,10.61859 -4.07457,18.76774 -3.95111,8.02568 -10.86554,12.47068 -6.91443,4.32152 -15.434,4.32152 -7.16138,0 -12.71762,-2.96333 -5.43276,-2.96333 -8.51956,-7.65527 v 42.47437 H 365.53229 V 82.345803 h 21.11372 z m 30.12716,24.570929 q 0,-7.90221 -4.44499,-12.3472 -4.32152,-4.568465 -10.74206,-4.568465 -6.29707,0 -10.74207,4.568465 -4.32152,4.56846 -4.32152,12.47067 0,7.90221 4.32152,12.47067 4.445,4.56847 10.74207,4.56847 6.29707,0 10.74206,-4.56847 4.44499,-4.69193 4.44499,-12.59414 z"
         style="font-style:normal;font-variant:normal;font-weight:bold;font-stretch:normal;font-size:123.472px;line-height:1.25;font-family:Poppins;-inkscape-font-specification:'Poppins Bold';letter-spacing:-5.29167px;word-spacing:-21.1667px;fill:#19a9ff;fill-opacity:1;stroke-width:0.264583"
         id="path874"
         inkscape:label="p" />
    </g>
    <g
       aria-label="wiki"
       transform="skewX(-7.0528991)"
       style="font-style:normal;font-variant:normal;font-weight:normal;font-stretch:normal;font-size:105.833px;line-height:1.25;font-family:Jost;-inkscape-font-specification:Jost;letter-spacing:0px;word-spacing:-5.29167px;display:inline;fill:#0068b5;fill-opacity:1;stroke:none;stroke-width:0.264583"
       id="text48"
       inkscape:label="wiki">
      <path
         d="m -63.796485,82.34568 -18.644305,68.8975 h -23.33625 l -10.86556,-44.69694 -11.23597,44.69694 h -23.21278 l -18.76777,-68.8975 h 21.11375 l 9.7543,49.26542 11.60639,-49.26542 h 22.34847 l 11.729864,49.01847 9.630833,-49.01847 z"
         style="font-style:normal;font-variant:normal;font-weight:normal;font-stretch:normal;font-size:123.472px;line-height:1.25;font-family:Poppins;-inkscape-font-specification:Poppins;letter-spacing:-5.29167px;word-spacing:-21.1667px;fill:#0068b5;fill-opacity:1;stroke-width:0.264583"
         id="path865"
         inkscape:connector-curvature="0"
         inkscape:label="w" />
      <path
         d="m -50.538375,75.184291 q -5.55625,0 -9.136944,-3.210278 -3.457222,-3.33375 -3.457222,-8.149166 0,-4.938889 3.457222,-8.149167 3.580694,-3.33375 9.136944,-3.33375 5.432778,0 8.89,3.33375 3.580695,3.210278 3.580695,8.149167 0,4.815416 -3.580695,8.149166 -3.457222,3.210278 -8.89,3.210278 z m 10.495139,7.161389 v 68.8975 h -21.11375 v -68.8975 z"
         style="font-style:normal;font-variant:normal;font-weight:normal;font-stretch:normal;font-size:123.472px;line-height:1.25;font-family:Poppins;-inkscape-font-specification:Poppins;letter-spacing:-5.29167px;word-spacing:-21.1667px;fill:#0068b5;fill-opacity:1;stroke-width:0.264583"
         id="path867"
         inkscape:connector-curvature="0"
         inkscape:label="i1" />
      <path
         style="font-style:normal;font-variant:normal;font-weight:normal;font-stretch:normal;font-size:123.472px;line-height:1.25;font-family:Poppins;-inkscape-font-specification:Poppins;letter-spacing:-5.29167px;word-spacing:-21.1667px;fill:#0068b5;fill-opacity:1;stroke-width:1"
         d="M 549.35938,57.230469 503.29297,431.05664 h 79.80078 l 13.50977,-109.19922 65.82421,109.19922 h 98.9336 L 668.21094,301.32422 792.64453,170.6582 h -98.4668 L 602.20508,276.58984 629.16797,57.230469 Z"
         transform="matrix(0.26458333,0,0.03273474,0.26458333,-177.30772,37.192608)"
         id="path869"
         inkscape:connector-curvature="0"
         inkscape:label="k" />
      <path
         d="m 51.498468,75.184291 q -5.55625,0 -9.136945,-3.210278 -3.457222,-3.33375 -3.457222,-8.149166 0,-4.938889 3.457222,-8.149167 3.580695,-3.33375 9.136945,-3.33375 5.432777,0 8.89,3.33375 3.580694,3.210278 3.580694,8.149167 0,4.815416 -3.580694,8.149166 -3.457223,3.210278 -8.89,3.210278 z m 10.495138,7.161389 v 68.8975 H 40.879857 v -68.8975 z"
         style="font-style:normal;font-variant:normal;font-weight:normal;font-stretch:normal;font-size:123.472px;line-height:1.25;font-family:Poppins;-inkscape-font-specification:Poppins;letter-spacing:-5.29167px;word-spacing:-21.1667px;fill:#0068b5;fill-opacity:1;stroke-width:0.264583"
         id="path871"
         inkscape:connector-curvature="0"
         inkscape:label="i2" />
    </g>
  </g>
</svg>
