<?xml version="1.0" encoding="UTF-8" standalone="no"?>
<svg
   xmlns:dc="http://purl.org/dc/elements/1.1/"
   xmlns:cc="http://creativecommons.org/ns#"
   xmlns:rdf="http://www.w3.org/1999/02/22-rdf-syntax-ns#"
   xmlns:svg="http://www.w3.org/2000/svg"
   xmlns="http://www.w3.org/2000/svg"
   xmlns:sodipodi="http://sodipodi.sourceforge.net/DTD/sodipodi-0.dtd"
   xmlns:inkscape="http://www.inkscape.org/namespaces/inkscape"
   sodipodi:docname="wikijump2.svg"
   inkscape:version="1.0 (4035a4fb49, 2020-05-01)"
   inkscape:export-ydpi="96"
   inkscape:export-xdpi="96"
   inkscape:export-filename="C:\Users\Ross\Documents\wikijump2.png"
   id="svg8"
   version="1.1"
   viewBox="0 0 58.264759 16.036171"
   height="16.036171mm"
   width="58.264759mm">
  <defs
     id="defs2">
    <rect
       id="rect835"
       height="58.586311"
       width="162.90775"
       y="49.514881"
       x="15.497024" />
  </defs>
  <sodipodi:namedview
     inkscape:window-maximized="1"
     inkscape:window-y="-9"
     inkscape:window-x="-9"
     inkscape:window-height="1001"
     inkscape:window-width="1920"
     showgrid="false"
     inkscape:document-rotation="0"
     inkscape:current-layer="g847"
     inkscape:document-units="px"
     inkscape:cy="31.627276"
     inkscape:cx="98.514151"
     inkscape:zoom="2.8"
     inkscape:pageshadow="2"
     inkscape:pageopacity="0.0"
     borderopacity="1.0"
     bordercolor="#666666"
     pagecolor="#ffffff"
     id="base" />
  <metadata
     id="metadata5">
    <rdf:RDF>
      <cc:Work
         rdf:about="">
        <dc:format>image/svg+xml</dc:format>
        <dc:type
           rdf:resource="http://purl.org/dc/dcmitype/StillImage" />
        <dc:title></dc:title>
      </cc:Work>
    </rdf:RDF>
  </metadata>
  <g
     transform="translate(-13.363476,-47.440338)"
     id="layer1"
     inkscape:groupmode="layer"
     inkscape:label="Layer 1">
    <g
       inkscape:label="word"
       id="g847">
      <path
         id="path841"
         style="font-style:normal;font-variant:normal;font-weight:bold;font-stretch:normal;font-size:10.5833px;line-height:1.25;font-family:Montserrat;-inkscape-font-specification:'Montserrat Bold';white-space:pre;fill:#4e4e4e;fill-opacity:1;stroke:none"
         d="m 25.402062,53.548852 -2.063743,5.693815 h -1.587495 l -1.280579,-3.534822 -1.322913,3.534822 h -1.587495 l -2.05316,-5.693815 h 1.555745 l 1.344079,3.852321 1.396996,-3.852321 h 1.396995 l 1.354663,3.852321 1.386412,-3.852321 z"
         inkscape:label="w" />
      <path
         id="path843"
         style="font-style:normal;font-variant:normal;font-weight:bold;font-stretch:normal;font-size:10.5833px;line-height:1.25;font-family:Montserrat;-inkscape-font-specification:'Montserrat Bold';white-space:pre;fill:#4e4e4e;fill-opacity:1;stroke:none"
         d="m 26.179935,53.548852 h 1.650995 v 5.693815 h -1.650995 z m 0.825497,-0.793748 q -0.455082,0 -0.740831,-0.264582 -0.285749,-0.264583 -0.285749,-0.656165 0,-0.391582 0.285749,-0.656164 0.285749,-0.264583 0.740831,-0.264583 0.455082,0 0.740831,0.253999 0.285749,0.254 0.285749,0.634998 0,0.412749 -0.285749,0.687915 -0.285749,0.264582 -0.740831,0.264582 z"
         inkscape:label="i0" />
      <path
         id="path845"
         style="font-style:normal;font-variant:normal;font-weight:bold;font-stretch:normal;font-size:10.5833px;line-height:1.25;font-family:Montserrat;-inkscape-font-specification:'Montserrat Bold';white-space:pre;fill:#4e4e4e;fill-opacity:1;stroke:none"
         d="m 31.807935,57.009591 -0.793747,0.783164 v 1.449912 h -1.650995 v -7.852808 h 1.650995 v 4.444986 l 2.412992,-2.285993 h 1.968494 l -2.370659,2.412992 2.582325,3.280823 h -2.000244 z"
         inkscape:label="k" />
      <path
         id="path847"
         style="font-style:normal;font-variant:normal;font-weight:bold;font-stretch:normal;font-size:10.5833px;line-height:1.25;font-family:Montserrat;-inkscape-font-specification:'Montserrat Bold';white-space:pre;fill:#4e4e4e;fill-opacity:1;stroke:none"
         d="m 36.308483,53.548852 h 1.650995 v 5.693815 h -1.650995 z m 0.825498,-0.793748 q -0.455082,0 -0.740831,-0.264582 -0.285749,-0.264583 -0.285749,-0.656165 0,-0.391582 0.285749,-0.656164 0.285749,-0.264583 0.740831,-0.264583 0.455082,0 0.740831,0.253999 0.285749,0.254 0.285749,0.634998 0,0.412749 -0.285749,0.687915 -0.285749,0.264582 -0.740831,0.264582 z"
         inkscape:label="i1" />
      <path
         id="path851"
         style="font-style:normal;font-variant:normal;font-weight:bold;font-stretch:normal;font-size:10.5833px;line-height:1.25;font-family:Montserrat;-inkscape-font-specification:'Montserrat Bold';white-space:pre;fill:#4e4e4e;fill-opacity:1;stroke:none"
         d="m 50.61732,53.548852 v 5.693815 h -1.566328 v -0.677331 q -0.328082,0.370415 -0.783164,0.571498 -0.455082,0.1905 -0.984247,0.1905 -1.12183,0 -1.777994,-0.645582 -0.656165,-0.645581 -0.656165,-1.915577 v -3.217323 h 1.650995 v 2.973907 q 0,1.375829 1.15358,1.375829 0.592664,0 0.952497,-0.380999 0.359832,-0.391582 0.359832,-1.153579 v -2.815158 z"
         inkscape:label="u" />
      <path
         id="path853"
         style="font-style:normal;font-variant:normal;font-weight:bold;font-stretch:normal;font-size:10.5833px;line-height:1.25;font-family:Montserrat;-inkscape-font-specification:'Montserrat Bold';white-space:pre;fill:#4e4e4e;fill-opacity:1;stroke:none"
         d="m 59.449086,53.464186 q 1.068913,0 1.693327,0.634997 0.634998,0.624415 0.634998,1.883828 v 3.259656 H 60.126417 V 56.23701 q 0,-0.677331 -0.285749,-1.005413 -0.275166,-0.338666 -0.793748,-0.338666 -0.582081,0 -0.920747,0.380999 -0.338665,0.370415 -0.338665,1.111246 v 2.857491 H 56.136513 V 56.23701 q 0,-1.344079 -1.079497,-1.344079 -0.571498,0 -0.910164,0.380999 -0.338665,0.370415 -0.338665,1.111246 v 2.857491 h -1.650995 v -5.693815 h 1.576912 v 0.656164 q 0.317499,-0.359832 0.772581,-0.550331 0.465665,-0.190499 1.015996,-0.190499 0.603248,0 1.09008,0.243415 0.486832,0.232833 0.783164,0.687915 0.349249,-0.444499 0.878414,-0.687915 0.539749,-0.243415 1.174747,-0.243415 z"
         inkscape:label="m" />
      <path
         id="path855"
         style="font-style:normal;font-variant:normal;font-weight:bold;font-stretch:normal;font-size:10.5833px;line-height:1.25;font-family:Montserrat;-inkscape-font-specification:'Montserrat Bold';white-space:pre;fill:#4e4e4e;fill-opacity:1;stroke:none"
         d="m 66.622741,53.464186 q 0.793747,0 1.439329,0.370415 0.656164,0.359832 1.02658,1.02658 0.370415,0.656165 0.370415,1.534579 0,0.878413 -0.370415,1.545161 -0.370416,0.656165 -1.02658,1.02658 -0.645582,0.359833 -1.439329,0.359833 -1.09008,0 -1.714495,-0.687915 v 2.656408 h -1.650994 v -7.746975 h 1.576911 v 0.656164 q 0.613832,-0.74083 1.788578,-0.74083 z m -0.285749,4.508485 q 0.634998,0 1.037163,-0.423332 0.412749,-0.433915 0.412749,-1.153579 0,-0.719665 -0.412749,-1.142997 -0.402165,-0.433915 -1.037163,-0.433915 -0.634998,0 -1.047747,0.433915 -0.402165,0.423332 -0.402165,1.142997 0,0.719664 0.402165,1.153579 0.412749,0.423332 1.047747,0.423332 z"
         inkscape:label="p" />
    </g>
    <g
       inkscape:label="arrow"
       id="g851">
      <path
         id="path849"
         style="font-style:italic;font-variant:normal;font-weight:900;font-stretch:normal;font-size:10.5833px;line-height:1.25;font-family:Montserrat;-inkscape-font-specification:'Montserrat Heavy Italic';white-space:pre;fill:#1aa9ff;fill-opacity:1;stroke:none"
         d="m 38.306412,61.40166 c -0.578554,0 -1.083025,-0.09525 -1.513412,-0.285749 l 0.805087,-1.555272 c 0.243156,0.04004 0.440215,0.03128 0.623659,0.03128 0.162277,0 0.292804,-0.05292 0.391582,-0.158749 0.09878,-0.105833 0.17286,-0.275166 0.222249,-0.507999 l 1.674732,-6.924844 h 4.129078 l -1.664149,6.840178 c -0.169333,0.846664 -0.495355,1.472191 -1.429143,1.96569 -1.004667,0.447091 -1.332866,0.595468 -3.239683,0.595468 z"
         sodipodi:nodetypes="sccsscccccs"
         inkscape:label="arrow-bottom" />
      <path
         style="fill:#1aa9ff;fill-opacity:1;stroke:none;stroke-width:0.307765px;stroke-linecap:butt;stroke-linejoin:miter;stroke-opacity:1"
         d="m 38.787491,52.418236 h 7.433434 l -3.042703,-3.274052 z"
         id="path866"
         inkscape:label="arrow-top" />
    </g>
  </g>
</svg>
