<svg xmlns:osb="http://www.openswatchbook.org/uri/2009/osb" xmlns="http://www.w3.org/2000/svg" xmlns:xlink="http://www.w3.org/1999/xlink" viewBox="0 0 174.189 174.189" height="658.353" width="658.353"><defs><linearGradient osb:paint="solid" id="b"><stop offset="0" stop-color="#0068b5"/></linearGradient><linearGradient osb:paint="solid" id="c"><stop offset="0" stop-color="#0068b5"/></linearGradient><linearGradient osb:paint="solid" id="a"><stop offset="0" stop-color="#19a9ff"/></linearGradient><linearGradient gradientUnits="userSpaceOnUse" y2="184.386" x2="188.602" y1="184.386" x1="17.188" id="h" xlink:href="#a"/><linearGradient gradientUnits="userSpaceOnUse" y2="43.94" x2="191.445" y1="43.94" x1="126.811" id="g" xlink:href="#a"/><linearGradient gradientTransform="matrix(.50053 0 0 .50053 49.476 45.092)" gradientUnits="userSpaceOnUse" y2="181.184" x2="150.382" y1="181.184" x1="29.363" id="d" xlink:href="#b"/><linearGradient xlink:href="#a" id="f" gradientUnits="userSpaceOnUse" x1="-235.305" y1="43.84" x2="-148.928" y2="43.84"/><linearGradient xlink:href="#c" id="j" gradientUnits="userSpaceOnUse" x1="-235.305" y1="43.84" x2="-148.928" y2="43.84"/><path id="i" d="M-235.101 18.899h103.565v61.232h-103.565z"/><path id="e" d="M-235.101 18.899h103.565v61.232h-103.565z"/></defs><circle r="87.095" cy="88.698" cx="89.299" fill="#fff" fill-rule="evenodd" transform="translate(-2.204 -1.604)"/><path d="M64.174 93.81s44.512-.108 60.574-.01c-1.223 30.402-11.006 83.582-34.752 84.002-13.83.02-25.338-3.833-25.422-26.616.06-3.58.069-4.568.558-7.991 3.269 18.193 11.418 27.097 30.858 26.367 3.852-5.474 19.732-51.05 19.89-59.218-7.358-2.38-51.706-16.535-51.706-16.535z" fill="url(#d)" transform="translate(-17.066 -28.036)"/><g transform="translate(29.27 10.69) scale(.52059)"><circle cx="159.128" cy="43.94" fill="url(#g)" fill-rule="evenodd" r="32.317"/><path d="M17.604 85.839s138.91-.216 170.998-.019c-2.883 22.433-5.56 46.993-11.67 87.344-5.26 50.624-26.044 96.302-67.791 108.003 32.381-21.606 35.122-74.143 35.587-84.103-3.243 31.647-30.922 86.267-71.566 85.97-27.727.135-55.994-19.652-55.917-65.414-.377-11.335 1.195-17.825 2.174-24.663 1.585 33.14 18.1 55.038 41.97 55.049 36.955.955 53.757-64.239 59.516-129.132-14.7-4.757-103.301-33.035-103.301-33.035z" fill="url(#h)"/></g></svg>