<?xml version="1.0" standalone="no"?>
<!DOCTYPE svg PUBLIC "-//W3C//DTD SVG 20010904//EN"
 "http://www.w3.org/TR/2001/REC-SVG-20010904/DTD/svg10.dtd">
<svg version="1.0" xmlns="http://www.w3.org/2000/svg"
 width="700.000000pt" height="700.000000pt" viewBox="0 0 700.000000 700.000000"
 preserveAspectRatio="xMidYMid meet">
<g transform="translate(0.000000,700.000000) scale(0.100000,-0.100000)"
fill="#000000" stroke="none">
<path d="M4365 6316 c-259 -60 -462 -259 -521 -511 -23 -98 -15 -276 15 -365
71 -206 235 -367 446 -437 68 -22 97 -26 200 -26 103 0 132 4 200 26 111 37
198 90 280 172 129 129 185 259 193 442 3 82 0 131 -13 187 -50 225 -224 416
-450 492 -98 33 -256 42 -350 20z"/>
<path d="M1556 4772 c5 -5 291 -98 635 -208 l626 -199 -461 -5 -461 -5 110
-37 c61 -20 459 -147 885 -283 426 -137 777 -249 778 -251 6 -4 -27 -253 -59
-449 -174 -1065 -475 -1710 -883 -1895 -124 -57 -174 -50 -316 45 -223 148
-366 396 -454 785 -21 94 -25 102 -32 75 -5 -16 -9 -147 -9 -290 0 -254 6
-315 42 -455 l6 -25 -28 25 c-47 43 -138 171 -182 256 -81 156 -146 394 -160
586 -8 111 -16 98 -38 -61 -55 -395 -10 -794 120 -1078 75 -163 207 -330 344
-434 93 -70 267 -154 386 -185 123 -32 342 -44 463 -24 83 13 218 57 297 98
154 77 362 254 498 422 213 264 402 645 493 995 38 149 40 146 19 -25 -43
-351 -145 -702 -271 -940 -101 -190 -249 -372 -386 -475 -33 -25 -56 -45 -51
-45 20 0 151 49 228 84 203 94 407 257 570 456 283 346 496 886 585 1485 94
637 270 1963 270 2039 l0 26 -1787 0 c-983 0 -1783 -4 -1777 -8z"/>
</g>
</svg>
