<svg xmlns:osb="http://www.openswatchbook.org/uri/2009/osb" xmlns="http://www.w3.org/2000/svg" xmlns:xlink="http://www.w3.org/1999/xlink" viewBox="0 0 608.239 141.294" height="534.026" width="2298.857"><defs><linearGradient osb:paint="solid" id="b"><stop offset="0" style="stop-color:#0068b5;stop-opacity:1"/></linearGradient><linearGradient osb:paint="solid" id="a"><stop offset="0" style="stop-color:#19a9ff;stop-opacity:1"/></linearGradient><linearGradient xlink:href="#a" id="d" gradientUnits="userSpaceOnUse" x1="-235.305" y1="43.84" x2="-148.928" y2="43.84"/><linearGradient xlink:href="#b" id="f" gradientUnits="userSpaceOnUse" x1="-235.305" y1="43.84" x2="-148.928" y2="43.84"/><path id="e" d="M-235.101 18.899h103.565v61.232h-103.565z"/><path id="c" d="M-235.101 18.899h103.565v61.232h-103.565z"/></defs><g style="display:inline"><path style="fill:currentColor;fill-opacity:1;stroke:none;stroke-width:.50053352px;stroke-linecap:butt;stroke-linejoin:miter;stroke-opacity:1" d="M968.63 185.232c-19.146.036-49.59.084-49.59.084s97.114 30.998 155.67 49.743c.534-5.126 1.043-10.256 1.499-15.39-13.96-4.516-62.461-20.023-107.578-34.437zm150.68 175.903c-.677 6.609-1.951 13.777-3.775 21.277a521.797 521.797 0 0 0 3.082-10.15c.378-4.848.581-8.717.694-11.127zM922.663 371.97c-1.85 12.936-1.886 16.67-2.111 30.203.045 12.269.969 23.08 2.668 32.61 11.082 10.752 24.74 17.182 40.281 18.327-21.788-16.385-34.077-43.503-40.838-81.14zm162.799 80.38c-7.17 11.234-15.35 21.796-24.44 30.99 8.906-8.206 17.037-18.727 24.44-30.99z" transform="scale(.26458)"/></g><g style="display:inline"><text transform="matrix(2.5484 0 -.35365 2.79782 985.457 -68.78)" style="font-style:italic;font-variant:normal;font-weight:600;font-stretch:normal;font-size:50.79999924px;line-height:1.25;font-family:Jost;-inkscape-font-specification:'Jost Semi-Bold Italic';letter-spacing:-2.57628012px;white-space:pre;shape-inside:url(#c);fill:url(#linearGradient875);fill-opacity:1;stroke:none" xml:space="preserve"/><g transform="translate(225.325 -6.05) scale(.52059)" style="fill:currentColor"><circle style="fill:currentColor;fill-opacity:1;fill-rule:evenodd;stroke:none;stroke-width:2.00490999" cx="159.128" cy="43.94" r="32.317"/><path style="fill:currentColor;fill-opacity:1;stroke:none;stroke-width:.26458299px;stroke-linecap:butt;stroke-linejoin:miter;stroke-opacity:1" d="M17.604 85.839s138.91-.216 170.998-.019c-2.883 22.433-5.56 46.993-11.67 87.344-5.26 50.624-26.044 96.302-67.791 108.003 32.381-21.606 35.122-74.143 35.587-84.103-3.243 31.647-30.922 86.267-71.566 85.97-27.727.135-55.994-19.652-55.917-65.414-.377-11.335 1.195-17.825 2.174-24.663 1.585 33.14 18.1 55.038 41.97 55.049 36.955.955 53.757-64.239 59.516-129.132-14.7-4.757-103.301-33.035-103.301-33.035Z"/></g><text xml:space="preserve" style="font-style:italic;font-variant:normal;font-weight:600;font-stretch:normal;font-size:50.79999924px;line-height:1.25;font-family:Jost;-inkscape-font-specification:'Jost Semi-Bold Italic';letter-spacing:-.97695398px;white-space:pre;shape-inside:url(#e);fill:url(#linearGradient877);fill-opacity:1;stroke:none" transform="matrix(2.51724 0 -.33365 2.79782 748.955 -71.36)"/></g><g style="display:inline"><g aria-label="ump" style="font-style:normal;font-variant:normal;font-weight:400;font-stretch:normal;font-size:105.83333588px;line-height:1.25;font-family:Jost;-inkscape-font-specification:Jost;letter-spacing:0;word-spacing:-5.29166651px;fill:currentColor;fill-opacity:1;stroke:none;stroke-width:.26458332"><path d="M230.243 82.346v68.897H209.13v-9.384q-3.21 4.569-8.767 7.409-5.433 2.716-12.1 2.716-7.903 0-13.953-3.457-6.05-3.58-9.384-10.248-3.333-6.668-3.333-15.681V82.346h20.99v37.412q0 6.914 3.58 10.742 3.581 3.827 9.632 3.827 6.173 0 9.754-3.827 3.58-3.828 3.58-10.742V82.346ZM328.03 81.605q12.84 0 20.373 7.779 7.655 7.778 7.655 21.607v40.252h-20.99v-37.412q0-6.667-3.581-10.248-3.457-3.704-9.63-3.704-6.175 0-9.755 3.704-3.457 3.58-3.457 10.248v37.412h-20.99v-37.412q0-6.667-3.581-10.248-3.458-3.704-9.631-3.704-6.174 0-9.755 3.704-3.457 3.58-3.457 10.248v37.412h-21.114V82.346h21.114v8.643q3.21-4.322 8.396-6.791 5.186-2.593 11.73-2.593 7.779 0 13.83 3.334 6.173 3.333 9.63 9.507 3.58-5.68 9.754-9.26 6.174-3.581 13.459-3.581zM386.646 92.1q3.087-4.815 8.52-7.779 5.433-2.963 12.718-2.963 8.52 0 15.434 4.321 6.914 4.322 10.865 12.348 4.075 8.025 4.075 18.644 0 10.619-4.075 18.768-3.95 8.025-10.865 12.47-6.915 4.322-15.434 4.322-7.162 0-12.718-2.963-5.433-2.964-8.52-7.656v42.475h-21.113V82.346h21.113zm30.128 24.571q0-7.902-4.445-12.347-4.322-4.569-10.742-4.569-6.297 0-10.742 4.569-4.322 4.568-4.322 12.47 0 7.903 4.322 12.471 4.445 4.569 10.742 4.569 6.297 0 10.742-4.569 4.445-4.692 4.445-12.594z" style="font-style:normal;font-variant:normal;font-weight:400;font-stretch:normal;font-size:123.47222137px;line-height:1.25;font-family:Poppins;-inkscape-font-specification:Poppins;letter-spacing:-5.29166651px;word-spacing:-21.16666603px;fill:currentColor;fill-opacity:1;stroke-width:.26458332" transform="matrix(1 0 -.12372 1 180.047 -43.72)"/></g><g aria-label="wiki" style="font-style:normal;font-variant:normal;font-weight:400;font-stretch:normal;font-size:105.83333588px;line-height:1.25;font-family:Jost;-inkscape-font-specification:Jost;letter-spacing:0;word-spacing:-5.29166651px;fill:currentColor;fill-opacity:1;stroke:none;stroke-width:.26458332"><path d="m-63.796 82.346-18.645 68.897h-23.336l-10.866-44.697-11.236 44.697h-23.212l-18.768-68.897h21.114l9.754 49.265 11.606-49.265h22.349l11.73 49.018 9.63-49.018zM-50.538 75.184q-5.557 0-9.137-3.21-3.458-3.334-3.458-8.15 0-4.938 3.458-8.148 3.58-3.334 9.137-3.334 5.432 0 8.89 3.334 3.58 3.21 3.58 8.149 0 4.815-3.58 8.149-3.458 3.21-8.89 3.21zm10.495 7.162v68.897h-21.114V82.346z" style="font-style:normal;font-variant:normal;font-weight:400;font-stretch:normal;font-size:123.47222137px;line-height:1.25;font-family:Poppins;-inkscape-font-specification:Poppins;letter-spacing:-5.29166651px;word-spacing:-21.16666603px;fill:currentColor;fill-opacity:1;stroke-width:.26458332" transform="matrix(1 0 -.12372 1 180.047 -43.72)"/><path style="font-style:normal;font-variant:normal;font-weight:400;font-stretch:normal;font-size:123.47222137px;line-height:1.25;font-family:Poppins;-inkscape-font-specification:Poppins;letter-spacing:-5.29166651px;word-spacing:-21.16666603px;fill:currentColor;fill-opacity:1;stroke-width:.99999994" d="m549.36 57.23-46.067 373.827h79.8l13.51-109.2 65.825 109.2h98.933l-93.15-129.733 124.434-130.666h-98.467L602.205 276.59l26.963-219.36Z" transform="matrix(.26458 0 0 .26458 -1.862 -6.527)"/><path d="M51.498 75.184q-5.556 0-9.136-3.21-3.458-3.334-3.458-8.15 0-4.938 3.458-8.148 3.58-3.334 9.136-3.334 5.433 0 8.89 3.334 3.581 3.21 3.581 8.149 0 4.815-3.58 8.149-3.458 3.21-8.89 3.21zm10.496 7.162v68.897H40.88V82.346z" style="font-style:normal;font-variant:normal;font-weight:400;font-stretch:normal;font-size:123.47222137px;line-height:1.25;font-family:Poppins;-inkscape-font-specification:Poppins;letter-spacing:-5.29166651px;word-spacing:-21.16666603px;fill:currentColor;fill-opacity:1;stroke-width:.26458332" transform="matrix(1 0 -.12372 1 180.047 -43.72)"/></g></g></svg>
